<mxfile host="app.diagrams.net" modified="2022-10-23T03:31:01.844Z" agent="5.0 (Windows NT 10.0; Win64; x64) AppleWebKit/537.36 (KHTML, like Gecko) Chrome/106.0.0.0 Safari/537.36" etag="LbAUzvH2TJy-l7Dgoimm" version="20.5.1" type="github">
  <diagram name="Page-1" id="03018318-947c-dd8e-b7a3-06fadd420f32">
    <mxGraphModel dx="1408" dy="748" grid="1" gridSize="10" guides="1" tooltips="1" connect="1" arrows="1" fold="1" page="1" pageScale="1" pageWidth="1169" pageHeight="827" background="none" math="0" shadow="0">
      <root>
        <mxCell id="0" />
        <mxCell id="1" parent="0" />
        <mxCell id="GZVW_mrwKKOPV1Nri92c-166" value="" style="verticalLabelPosition=bottom;shadow=0;dashed=0;align=center;html=1;verticalAlign=top;strokeWidth=1;shape=mxgraph.mockup.graphics.simpleIcon;strokeColor=#999999;rounded=0;labelBackgroundColor=none;fontFamily=Verdana;fontSize=14;fontColor=#000000;comic=1;" vertex="1" parent="1">
          <mxGeometry x="57" y="2960" width="1055" height="450" as="geometry" />
        </mxCell>
        <mxCell id="GZVW_mrwKKOPV1Nri92c-111" value="" style="ellipse;whiteSpace=wrap;html=1;aspect=fixed;fillStyle=solid;strokeColor=#000000;strokeWidth=1;fontSize=11;fillColor=#CCCCCC;gradientColor=none;" vertex="1" parent="1">
          <mxGeometry x="497" y="2636.5" width="42.5" height="42.5" as="geometry" />
        </mxCell>
        <mxCell id="GZVW_mrwKKOPV1Nri92c-110" value="" style="ellipse;whiteSpace=wrap;html=1;aspect=fixed;fillStyle=solid;strokeColor=#000000;strokeWidth=1;fontSize=11;fillColor=#CCCCCC;gradientColor=none;" vertex="1" parent="1">
          <mxGeometry x="552.75" y="2636.75" width="42.5" height="42.5" as="geometry" />
        </mxCell>
        <mxCell id="GZVW_mrwKKOPV1Nri92c-109" value="" style="ellipse;whiteSpace=wrap;html=1;aspect=fixed;fillStyle=solid;strokeColor=#000000;strokeWidth=1;fontSize=11;fillColor=#CCCCCC;gradientColor=none;" vertex="1" parent="1">
          <mxGeometry x="609" y="2636.75" width="42.5" height="42.5" as="geometry" />
        </mxCell>
        <mxCell id="GZVW_mrwKKOPV1Nri92c-58" value="" style="strokeWidth=1;shadow=0;dashed=0;align=center;html=1;shape=mxgraph.mockup.buttons.button;strokeColor=#000000;fontColor=#ffffff;mainText=;buttonStyle=round;fontSize=17;fontStyle=1;fillColor=#CCCCCC;whiteSpace=wrap;fillStyle=solid;" vertex="1" parent="1">
          <mxGeometry x="167" y="965" width="270" height="180" as="geometry" />
        </mxCell>
        <mxCell id="677b7b8949515195-16" value="" style="verticalLabelPosition=bottom;shadow=0;dashed=0;align=center;html=1;verticalAlign=top;strokeWidth=1;shape=mxgraph.mockup.graphics.simpleIcon;strokeColor=#999999;rounded=0;labelBackgroundColor=none;fontFamily=Verdana;fontSize=14;fontColor=#000000;comic=1;" parent="1" vertex="1">
          <mxGeometry x="56" y="160" width="1060" height="400" as="geometry" />
        </mxCell>
        <mxCell id="GZVW_mrwKKOPV1Nri92c-197" value="" style="edgeStyle=orthogonalEdgeStyle;rounded=0;orthogonalLoop=1;jettySize=auto;html=1;fontSize=12;fontColor=#000000;" edge="1" parent="1" source="677b7b8949515195-2" target="GZVW_mrwKKOPV1Nri92c-170">
          <mxGeometry relative="1" as="geometry" />
        </mxCell>
        <mxCell id="677b7b8949515195-2" value="LOGO" style="whiteSpace=wrap;html=1;rounded=0;shadow=0;labelBackgroundColor=none;strokeWidth=1;fontFamily=Verdana;fontSize=28;align=center;comic=1;" parent="1" vertex="1">
          <mxGeometry x="76" y="165" width="190" height="50" as="geometry" />
        </mxCell>
        <mxCell id="677b7b8949515195-9" value="" style="line;strokeWidth=1;html=1;rounded=0;shadow=0;labelBackgroundColor=none;fillColor=none;fontFamily=Verdana;fontSize=14;fontColor=#000000;align=center;comic=1;" parent="1" vertex="1">
          <mxGeometry x="56" y="220" width="1060" height="10" as="geometry" />
        </mxCell>
        <mxCell id="677b7b8949515195-27" value="&lt;b&gt;&lt;font style=&quot;font-size: 24px;&quot;&gt;SERVICES&lt;/font&gt;&lt;/b&gt;" style="text;html=1;points=[];align=center;verticalAlign=top;spacingTop=-4;fontSize=14;fontFamily=Verdana" parent="1" vertex="1">
          <mxGeometry x="511" y="587" width="170" height="30" as="geometry" />
        </mxCell>
        <mxCell id="GZVW_mrwKKOPV1Nri92c-2" value="Welcome To Our Studio!" style="text;html=1;points=[];align=center;verticalAlign=top;spacingTop=-4;fontSize=16;fontFamily=Verdana" vertex="1" parent="1">
          <mxGeometry x="486" y="300" width="180" height="20" as="geometry" />
        </mxCell>
        <mxCell id="GZVW_mrwKKOPV1Nri92c-3" value="ITÂ´S NICE TO MEET YOU" style="text;html=1;points=[];align=center;verticalAlign=top;spacingTop=-4;fontSize=38;fontFamily=Verdana" vertex="1" parent="1">
          <mxGeometry x="351" y="340" width="490" height="50" as="geometry" />
        </mxCell>
        <mxCell id="GZVW_mrwKKOPV1Nri92c-7" value="&lt;span style=&quot;font-size: 12px; text-align: justify;&quot;&gt;Lorem ipsum dolor sit amet,&lt;/span&gt;&lt;span style=&quot;font-size: 12px; text-align: justify;&quot;&gt;Lorem&lt;/span&gt;" style="text;html=1;points=[];align=center;verticalAlign=top;spacingTop=-4;fontSize=14;fontFamily=Verdana" vertex="1" parent="1">
          <mxGeometry x="481" y="627" width="230" height="20" as="geometry" />
        </mxCell>
        <mxCell id="GZVW_mrwKKOPV1Nri92c-8" value="&lt;span style=&quot;font-size: 12px; text-align: justify;&quot;&gt;Lorem ipsum dolor sit amet,&amp;nbsp;&lt;br&gt;&lt;/span&gt;&lt;span style=&quot;font-size: 12px; text-align: justify;&quot;&gt;Lorem ipsum dolor sit amet,&lt;/span&gt;&lt;span style=&quot;font-size: 12px; text-align: justify;&quot;&gt;Lorem&lt;br&gt;&lt;/span&gt;&lt;span style=&quot;font-size: 12px; text-align: justify;&quot;&gt;Lorem ipsum dolor siT&lt;/span&gt;" style="text;html=1;points=[];align=center;verticalAlign=top;spacingTop=-4;fontSize=14;fontFamily=Verdana" vertex="1" parent="1">
          <mxGeometry x="181" y="775" width="230" height="60" as="geometry" />
        </mxCell>
        <mxCell id="GZVW_mrwKKOPV1Nri92c-9" value="&lt;span style=&quot;font-size: 12px; text-align: justify;&quot;&gt;Lorem ipsum dolor sit amet,&amp;nbsp;&lt;br&gt;&lt;/span&gt;&lt;span style=&quot;font-size: 12px; text-align: justify;&quot;&gt;Lorem ipsum dolor sit amet,&lt;/span&gt;&lt;span style=&quot;font-size: 12px; text-align: justify;&quot;&gt;Lorem&lt;br&gt;&lt;/span&gt;&lt;span style=&quot;font-size: 12px; text-align: justify;&quot;&gt;Lorem ipsum dolor siT&lt;/span&gt;" style="text;html=1;points=[];align=center;verticalAlign=top;spacingTop=-4;fontSize=14;fontFamily=Verdana" vertex="1" parent="1">
          <mxGeometry x="471" y="775" width="230" height="60" as="geometry" />
        </mxCell>
        <mxCell id="GZVW_mrwKKOPV1Nri92c-10" value="&lt;span style=&quot;font-size: 12px; text-align: justify;&quot;&gt;Lorem ipsum dolor sit amet,&amp;nbsp;&lt;br&gt;&lt;/span&gt;&lt;span style=&quot;font-size: 12px; text-align: justify;&quot;&gt;Lorem ipsum dolor sit amet,&lt;/span&gt;&lt;span style=&quot;font-size: 12px; text-align: justify;&quot;&gt;Lorem&lt;br&gt;&lt;/span&gt;&lt;span style=&quot;font-size: 12px; text-align: justify;&quot;&gt;Lorem ipsum dolor siT&lt;/span&gt;" style="text;html=1;points=[];align=center;verticalAlign=top;spacingTop=-4;fontSize=14;fontFamily=Verdana" vertex="1" parent="1">
          <mxGeometry x="751" y="775" width="230" height="60" as="geometry" />
        </mxCell>
        <mxCell id="GZVW_mrwKKOPV1Nri92c-11" value="&lt;b&gt;E-commerce&lt;/b&gt;" style="text;html=1;points=[];align=center;verticalAlign=top;spacingTop=-4;fontSize=14;fontFamily=Verdana" vertex="1" parent="1">
          <mxGeometry x="221" y="745" width="170" height="20" as="geometry" />
        </mxCell>
        <mxCell id="GZVW_mrwKKOPV1Nri92c-12" value="&lt;b&gt;Responsive Design&lt;/b&gt;" style="text;html=1;points=[];align=center;verticalAlign=top;spacingTop=-4;fontSize=14;fontFamily=Verdana" vertex="1" parent="1">
          <mxGeometry x="496" y="745" width="170" height="20" as="geometry" />
        </mxCell>
        <mxCell id="GZVW_mrwKKOPV1Nri92c-13" value="&lt;b&gt;Web Security&lt;/b&gt;" style="text;html=1;points=[];align=center;verticalAlign=top;spacingTop=-4;fontSize=14;fontFamily=Verdana" vertex="1" parent="1">
          <mxGeometry x="791" y="745" width="170" height="20" as="geometry" />
        </mxCell>
        <mxCell id="GZVW_mrwKKOPV1Nri92c-18" value="&lt;b&gt;&lt;font style=&quot;font-size: 24px;&quot;&gt;PORTFOLIO&lt;/font&gt;&lt;/b&gt;" style="text;html=1;points=[];align=center;verticalAlign=top;spacingTop=-4;fontSize=14;fontFamily=Verdana" vertex="1" parent="1">
          <mxGeometry x="504" y="885" width="170" height="30" as="geometry" />
        </mxCell>
        <mxCell id="GZVW_mrwKKOPV1Nri92c-19" value="&lt;span style=&quot;font-size: 12px; text-align: justify;&quot;&gt;Lorem ipsum dolor sit amet,&lt;/span&gt;&lt;span style=&quot;font-size: 12px; text-align: justify;&quot;&gt;Lorem&lt;/span&gt;" style="text;html=1;points=[];align=center;verticalAlign=top;spacingTop=-4;fontSize=14;fontFamily=Verdana" vertex="1" parent="1">
          <mxGeometry x="474" y="925" width="230" height="20" as="geometry" />
        </mxCell>
        <mxCell id="GZVW_mrwKKOPV1Nri92c-21" value="" style="verticalLabelPosition=bottom;shadow=0;dashed=0;align=center;html=1;verticalAlign=top;strokeWidth=1;shape=mxgraph.mockup.graphics.simpleIcon;strokeColor=#999999;rounded=0;labelBackgroundColor=none;fontFamily=Verdana;fontSize=14;fontColor=#000000;comic=1;" vertex="1" parent="1">
          <mxGeometry x="187" y="977.5" width="230" height="155" as="geometry" />
        </mxCell>
        <mxCell id="GZVW_mrwKKOPV1Nri92c-26" value="&lt;b&gt;Threads&lt;/b&gt;" style="text;html=1;points=[];align=center;verticalAlign=top;spacingTop=-4;fontSize=12;fontFamily=Verdana" vertex="1" parent="1">
          <mxGeometry x="217" y="1155" width="170" height="20" as="geometry" />
        </mxCell>
        <mxCell id="GZVW_mrwKKOPV1Nri92c-27" value="&lt;div style=&quot;text-align: justify;&quot;&gt;&lt;span style=&quot;background-color: initial; font-size: 12px;&quot;&gt;Illustration&lt;/span&gt;&lt;/div&gt;" style="text;html=1;points=[];align=center;verticalAlign=top;spacingTop=-4;fontSize=14;fontFamily=Verdana" vertex="1" parent="1">
          <mxGeometry x="252" y="1175" width="100" height="20" as="geometry" />
        </mxCell>
        <mxCell id="GZVW_mrwKKOPV1Nri92c-28" value="&lt;b&gt;Explore&lt;/b&gt;" style="text;html=1;points=[];align=center;verticalAlign=top;spacingTop=-4;fontSize=12;fontFamily=Verdana" vertex="1" parent="1">
          <mxGeometry x="507" y="1155" width="170" height="20" as="geometry" />
        </mxCell>
        <mxCell id="GZVW_mrwKKOPV1Nri92c-29" value="&lt;div style=&quot;text-align: justify;&quot;&gt;&lt;span style=&quot;background-color: initial; font-size: 12px;&quot;&gt;Graphic Design&lt;/span&gt;&lt;/div&gt;" style="text;html=1;points=[];align=center;verticalAlign=top;spacingTop=-4;fontSize=14;fontFamily=Verdana" vertex="1" parent="1">
          <mxGeometry x="542" y="1175" width="100" height="20" as="geometry" />
        </mxCell>
        <mxCell id="GZVW_mrwKKOPV1Nri92c-30" value="&lt;b&gt;Finish&lt;/b&gt;" style="text;html=1;points=[];align=center;verticalAlign=top;spacingTop=-4;fontSize=12;fontFamily=Verdana" vertex="1" parent="1">
          <mxGeometry x="807" y="1155" width="170" height="20" as="geometry" />
        </mxCell>
        <mxCell id="GZVW_mrwKKOPV1Nri92c-31" value="&lt;div style=&quot;text-align: justify;&quot;&gt;&lt;span style=&quot;background-color: initial; font-size: 12px;&quot;&gt;Identity&lt;/span&gt;&lt;/div&gt;" style="text;html=1;points=[];align=center;verticalAlign=top;spacingTop=-4;fontSize=14;fontFamily=Verdana" vertex="1" parent="1">
          <mxGeometry x="847" y="1175" width="100" height="20" as="geometry" />
        </mxCell>
        <mxCell id="GZVW_mrwKKOPV1Nri92c-39" value="" style="shape=sumEllipse;perimeter=ellipsePerimeter;whiteSpace=wrap;html=1;backgroundOutline=1;fillStyle=solid;fontSize=12;fillColor=#F5F5F5;gradientColor=none;" vertex="1" parent="1">
          <mxGeometry x="556" y="675" width="62.5" height="60" as="geometry" />
        </mxCell>
        <mxCell id="GZVW_mrwKKOPV1Nri92c-40" value="" style="shape=sumEllipse;perimeter=ellipsePerimeter;whiteSpace=wrap;html=1;backgroundOutline=1;fillStyle=solid;fontSize=12;fillColor=#F5F5F5;gradientColor=none;" vertex="1" parent="1">
          <mxGeometry x="851" y="665" width="62.5" height="60" as="geometry" />
        </mxCell>
        <mxCell id="GZVW_mrwKKOPV1Nri92c-41" value="" style="shape=sumEllipse;perimeter=ellipsePerimeter;whiteSpace=wrap;html=1;backgroundOutline=1;fillStyle=solid;fontSize=12;fillColor=#F5F5F5;gradientColor=none;" vertex="1" parent="1">
          <mxGeometry x="273.5" y="675" width="62.5" height="60" as="geometry" />
        </mxCell>
        <mxCell id="GZVW_mrwKKOPV1Nri92c-49" value="SERVICES" style="strokeWidth=1;shadow=0;dashed=0;align=center;html=1;shape=mxgraph.mockup.buttons.button;strokeColor=#666666;fontColor=#ffffff;mainText=;buttonStyle=round;fontSize=12;fontStyle=1;fillColor=#000000;whiteSpace=wrap;fillStyle=solid;" vertex="1" parent="1">
          <mxGeometry x="681" y="175" width="80" height="30" as="geometry" />
        </mxCell>
        <mxCell id="GZVW_mrwKKOPV1Nri92c-50" value="PORTFOLIO" style="strokeWidth=1;shadow=0;dashed=0;align=center;html=1;shape=mxgraph.mockup.buttons.button;strokeColor=#666666;fontColor=#ffffff;mainText=;buttonStyle=round;fontSize=12;fontStyle=1;fillColor=#000000;whiteSpace=wrap;fillStyle=solid;" vertex="1" parent="1">
          <mxGeometry x="768" y="175" width="80" height="30" as="geometry" />
        </mxCell>
        <mxCell id="GZVW_mrwKKOPV1Nri92c-51" value="ABOUT&lt;span style=&quot;color: rgba(0, 0, 0, 0); font-family: monospace; font-size: 0px; font-weight: 400; text-align: start;&quot;&gt;%3CmxGraphModel%3E%3Croot%3E%3CmxCell%20id%3D%220%22%2F%3E%3CmxCell%20id%3D%221%22%20parent%3D%220%22%2F%3E%3CmxCell%20id%3D%222%22%20value%3D%22SERVICES%22%20style%3D%22strokeWidth%3D1%3Bshadow%3D0%3Bdashed%3D0%3Balign%3Dcenter%3Bhtml%3D1%3Bshape%3Dmxgraph.mockup.buttons.button%3BstrokeColor%3D%23666666%3BfontColor%3D%23ffffff%3BmainText%3D%3BbuttonStyle%3Dround%3BfontSize%3D12%3BfontStyle%3D1%3BfillColor%3D%23000000%3BwhiteSpace%3Dwrap%3BfillStyle%3Dsolid%3B%22%20vertex%3D%221%22%20parent%3D%221%22%3E%3CmxGeometry%20x%3D%22710%22%20y%3D%2290%22%20width%3D%2280%22%20height%3D%2230%22%20as%3D%22geometry%22%2F%3E%3C%2FmxCell%3E%3C%2Froot%3E%3C%2FmxGraphModel%3E&lt;/span&gt;" style="strokeWidth=1;shadow=0;dashed=0;align=center;html=1;shape=mxgraph.mockup.buttons.button;strokeColor=#666666;fontColor=#ffffff;mainText=;buttonStyle=round;fontSize=12;fontStyle=1;fillColor=#000000;whiteSpace=wrap;fillStyle=solid;" vertex="1" parent="1">
          <mxGeometry x="857" y="175" width="80" height="30" as="geometry" />
        </mxCell>
        <mxCell id="GZVW_mrwKKOPV1Nri92c-52" value="TEAM" style="strokeWidth=1;shadow=0;dashed=0;align=center;html=1;shape=mxgraph.mockup.buttons.button;strokeColor=#666666;fontColor=#ffffff;mainText=;buttonStyle=round;fontSize=12;fontStyle=1;fillColor=#000000;whiteSpace=wrap;fillStyle=solid;" vertex="1" parent="1">
          <mxGeometry x="943" y="175" width="80" height="30" as="geometry" />
        </mxCell>
        <mxCell id="GZVW_mrwKKOPV1Nri92c-53" value="CONTACT" style="strokeWidth=1;shadow=0;dashed=0;align=center;html=1;shape=mxgraph.mockup.buttons.button;strokeColor=#666666;fontColor=#ffffff;mainText=;buttonStyle=round;fontSize=12;fontStyle=1;fillColor=#000000;whiteSpace=wrap;fillStyle=solid;" vertex="1" parent="1">
          <mxGeometry x="1028" y="175" width="80" height="30" as="geometry" />
        </mxCell>
        <mxCell id="GZVW_mrwKKOPV1Nri92c-54" value="TELL ME MORE" style="strokeWidth=1;shadow=0;dashed=0;align=center;html=1;shape=mxgraph.mockup.buttons.button;strokeColor=none;fontColor=#ffffff;mainText=;buttonStyle=round;fontSize=14;fontStyle=1;fillColor=#FFFF00;whiteSpace=wrap;fillStyle=solid;" vertex="1" parent="1">
          <mxGeometry x="506" y="430" width="170" height="50" as="geometry" />
        </mxCell>
        <mxCell id="GZVW_mrwKKOPV1Nri92c-60" value="" style="strokeWidth=1;shadow=0;dashed=0;align=center;html=1;shape=mxgraph.mockup.buttons.button;strokeColor=#000000;fontColor=#ffffff;mainText=;buttonStyle=round;fontSize=17;fontStyle=1;fillColor=#CCCCCC;whiteSpace=wrap;fillStyle=solid;" vertex="1" parent="1">
          <mxGeometry x="454" y="965" width="270" height="180" as="geometry" />
        </mxCell>
        <mxCell id="GZVW_mrwKKOPV1Nri92c-61" value="" style="verticalLabelPosition=bottom;shadow=0;dashed=0;align=center;html=1;verticalAlign=top;strokeWidth=1;shape=mxgraph.mockup.graphics.simpleIcon;strokeColor=#999999;rounded=0;labelBackgroundColor=none;fontFamily=Verdana;fontSize=14;fontColor=#000000;comic=1;" vertex="1" parent="1">
          <mxGeometry x="474" y="977.5" width="230" height="155" as="geometry" />
        </mxCell>
        <mxCell id="GZVW_mrwKKOPV1Nri92c-62" value="" style="strokeWidth=1;shadow=0;dashed=0;align=center;html=1;shape=mxgraph.mockup.buttons.button;strokeColor=#000000;fontColor=#ffffff;mainText=;buttonStyle=round;fontSize=17;fontStyle=1;fillColor=#CCCCCC;whiteSpace=wrap;fillStyle=solid;" vertex="1" parent="1">
          <mxGeometry x="742" y="965" width="270" height="180" as="geometry" />
        </mxCell>
        <mxCell id="GZVW_mrwKKOPV1Nri92c-63" value="" style="verticalLabelPosition=bottom;shadow=0;dashed=0;align=center;html=1;verticalAlign=top;strokeWidth=1;shape=mxgraph.mockup.graphics.simpleIcon;strokeColor=#999999;rounded=0;labelBackgroundColor=none;fontFamily=Verdana;fontSize=14;fontColor=#000000;comic=1;" vertex="1" parent="1">
          <mxGeometry x="762" y="977.5" width="230" height="155" as="geometry" />
        </mxCell>
        <mxCell id="GZVW_mrwKKOPV1Nri92c-64" value="" style="strokeWidth=1;shadow=0;dashed=0;align=center;html=1;shape=mxgraph.mockup.buttons.button;strokeColor=#000000;fontColor=#ffffff;mainText=;buttonStyle=round;fontSize=17;fontStyle=1;fillColor=#CCCCCC;whiteSpace=wrap;fillStyle=solid;" vertex="1" parent="1">
          <mxGeometry x="169.5" y="1215" width="270" height="180" as="geometry" />
        </mxCell>
        <mxCell id="GZVW_mrwKKOPV1Nri92c-65" value="" style="verticalLabelPosition=bottom;shadow=0;dashed=0;align=center;html=1;verticalAlign=top;strokeWidth=1;shape=mxgraph.mockup.graphics.simpleIcon;strokeColor=#999999;rounded=0;labelBackgroundColor=none;fontFamily=Verdana;fontSize=14;fontColor=#000000;comic=1;" vertex="1" parent="1">
          <mxGeometry x="189.5" y="1227.5" width="230" height="155" as="geometry" />
        </mxCell>
        <mxCell id="GZVW_mrwKKOPV1Nri92c-66" value="&lt;b&gt;Threads&lt;/b&gt;" style="text;html=1;points=[];align=center;verticalAlign=top;spacingTop=-4;fontSize=12;fontFamily=Verdana" vertex="1" parent="1">
          <mxGeometry x="219.5" y="1405" width="170" height="20" as="geometry" />
        </mxCell>
        <mxCell id="GZVW_mrwKKOPV1Nri92c-67" value="&lt;div style=&quot;text-align: justify;&quot;&gt;&lt;span style=&quot;background-color: initial; font-size: 12px;&quot;&gt;Illustration&lt;/span&gt;&lt;/div&gt;" style="text;html=1;points=[];align=center;verticalAlign=top;spacingTop=-4;fontSize=14;fontFamily=Verdana" vertex="1" parent="1">
          <mxGeometry x="254.5" y="1425" width="100" height="20" as="geometry" />
        </mxCell>
        <mxCell id="GZVW_mrwKKOPV1Nri92c-68" value="&lt;b&gt;Explore&lt;/b&gt;" style="text;html=1;points=[];align=center;verticalAlign=top;spacingTop=-4;fontSize=12;fontFamily=Verdana" vertex="1" parent="1">
          <mxGeometry x="509.5" y="1405" width="170" height="20" as="geometry" />
        </mxCell>
        <mxCell id="GZVW_mrwKKOPV1Nri92c-69" value="&lt;div style=&quot;text-align: justify;&quot;&gt;&lt;span style=&quot;background-color: initial; font-size: 12px;&quot;&gt;Graphic Design&lt;/span&gt;&lt;/div&gt;" style="text;html=1;points=[];align=center;verticalAlign=top;spacingTop=-4;fontSize=14;fontFamily=Verdana" vertex="1" parent="1">
          <mxGeometry x="544.5" y="1425" width="100" height="20" as="geometry" />
        </mxCell>
        <mxCell id="GZVW_mrwKKOPV1Nri92c-70" value="&lt;b&gt;Finish&lt;/b&gt;" style="text;html=1;points=[];align=center;verticalAlign=top;spacingTop=-4;fontSize=12;fontFamily=Verdana" vertex="1" parent="1">
          <mxGeometry x="809.5" y="1405" width="170" height="20" as="geometry" />
        </mxCell>
        <mxCell id="GZVW_mrwKKOPV1Nri92c-71" value="&lt;div style=&quot;text-align: justify;&quot;&gt;&lt;span style=&quot;background-color: initial; font-size: 12px;&quot;&gt;Identity&lt;/span&gt;&lt;/div&gt;" style="text;html=1;points=[];align=center;verticalAlign=top;spacingTop=-4;fontSize=14;fontFamily=Verdana" vertex="1" parent="1">
          <mxGeometry x="849.5" y="1425" width="100" height="20" as="geometry" />
        </mxCell>
        <mxCell id="GZVW_mrwKKOPV1Nri92c-72" value="" style="strokeWidth=1;shadow=0;dashed=0;align=center;html=1;shape=mxgraph.mockup.buttons.button;strokeColor=#000000;fontColor=#ffffff;mainText=;buttonStyle=round;fontSize=17;fontStyle=1;fillColor=#CCCCCC;whiteSpace=wrap;fillStyle=solid;" vertex="1" parent="1">
          <mxGeometry x="456.5" y="1215" width="270" height="180" as="geometry" />
        </mxCell>
        <mxCell id="GZVW_mrwKKOPV1Nri92c-73" value="" style="verticalLabelPosition=bottom;shadow=0;dashed=0;align=center;html=1;verticalAlign=top;strokeWidth=1;shape=mxgraph.mockup.graphics.simpleIcon;strokeColor=#999999;rounded=0;labelBackgroundColor=none;fontFamily=Verdana;fontSize=14;fontColor=#000000;comic=1;" vertex="1" parent="1">
          <mxGeometry x="476.5" y="1227.5" width="230" height="155" as="geometry" />
        </mxCell>
        <mxCell id="GZVW_mrwKKOPV1Nri92c-74" value="" style="strokeWidth=1;shadow=0;dashed=0;align=center;html=1;shape=mxgraph.mockup.buttons.button;strokeColor=#000000;fontColor=#ffffff;mainText=;buttonStyle=round;fontSize=17;fontStyle=1;fillColor=#CCCCCC;whiteSpace=wrap;fillStyle=solid;" vertex="1" parent="1">
          <mxGeometry x="744.5" y="1215" width="270" height="180" as="geometry" />
        </mxCell>
        <mxCell id="GZVW_mrwKKOPV1Nri92c-75" value="" style="verticalLabelPosition=bottom;shadow=0;dashed=0;align=center;html=1;verticalAlign=top;strokeWidth=1;shape=mxgraph.mockup.graphics.simpleIcon;strokeColor=#999999;rounded=0;labelBackgroundColor=none;fontFamily=Verdana;fontSize=14;fontColor=#000000;comic=1;" vertex="1" parent="1">
          <mxGeometry x="764.5" y="1227.5" width="230" height="155" as="geometry" />
        </mxCell>
        <mxCell id="GZVW_mrwKKOPV1Nri92c-76" value="" style="line;strokeWidth=1;html=1;rounded=0;shadow=0;labelBackgroundColor=none;fillColor=none;fontFamily=Verdana;fontSize=14;fontColor=#000000;align=center;comic=1;" vertex="1" parent="1">
          <mxGeometry x="56" y="850" width="1060" height="10" as="geometry" />
        </mxCell>
        <mxCell id="GZVW_mrwKKOPV1Nri92c-77" value="" style="line;strokeWidth=1;html=1;rounded=0;shadow=0;labelBackgroundColor=none;fillColor=none;fontFamily=Verdana;fontSize=14;fontColor=#000000;align=center;comic=1;" vertex="1" parent="1">
          <mxGeometry x="56" y="1470" width="1060" height="10" as="geometry" />
        </mxCell>
        <mxCell id="GZVW_mrwKKOPV1Nri92c-78" value="&lt;b&gt;&lt;font style=&quot;font-size: 24px;&quot;&gt;ABOUT&lt;/font&gt;&lt;/b&gt;" style="text;html=1;points=[];align=center;verticalAlign=top;spacingTop=-4;fontSize=14;fontFamily=Verdana" vertex="1" parent="1">
          <mxGeometry x="512" y="1500" width="170" height="30" as="geometry" />
        </mxCell>
        <mxCell id="GZVW_mrwKKOPV1Nri92c-79" value="&lt;span style=&quot;font-size: 12px; text-align: justify;&quot;&gt;Lorem ipsum dolor sit amet,&lt;/span&gt;&lt;span style=&quot;font-size: 12px; text-align: justify;&quot;&gt;Lorem&lt;/span&gt;" style="text;html=1;points=[];align=center;verticalAlign=top;spacingTop=-4;fontSize=14;fontFamily=Verdana" vertex="1" parent="1">
          <mxGeometry x="482" y="1540" width="230" height="20" as="geometry" />
        </mxCell>
        <mxCell id="GZVW_mrwKKOPV1Nri92c-80" value="&lt;b style=&quot;font-size: 14px;&quot;&gt;209-2011&lt;br style=&quot;font-size: 14px;&quot;&gt;Our Humble Beginnings&lt;br style=&quot;font-size: 14px;&quot;&gt;&lt;/b&gt;" style="text;html=1;points=[];align=right;verticalAlign=top;spacingTop=-4;fontSize=14;fontFamily=Verdana" vertex="1" parent="1">
          <mxGeometry x="312.5" y="1585" width="202.5" height="40" as="geometry" />
        </mxCell>
        <mxCell id="GZVW_mrwKKOPV1Nri92c-81" value="&lt;div style=&quot;&quot;&gt;&lt;span style=&quot;font-size: 12px; text-align: justify;&quot;&gt;Lorem ipsum dolor sit amet, consectetur&amp;nbsp;&lt;/span&gt;&lt;/div&gt;&lt;div style=&quot;&quot;&gt;&lt;span style=&quot;font-size: 12px; text-align: justify;&quot;&gt;adipisicing elit,&amp;nbsp;&lt;/span&gt;&lt;span style=&quot;font-size: 12px; text-align: justify; background-color: initial;&quot;&gt;sed do eiusmod tempor&lt;/span&gt;&lt;/div&gt;&lt;div style=&quot;&quot;&gt;&lt;span style=&quot;font-size: 12px; text-align: justify;&quot;&gt;&amp;nbsp;incididunt ut labore et dolore magna aliqua.&amp;nbsp;&lt;/span&gt;&lt;/div&gt;&lt;div style=&quot;&quot;&gt;&lt;span style=&quot;font-size: 12px; text-align: justify;&quot;&gt;Ut enim ad minim veniam, quis nostrud exercitation&lt;/span&gt;&lt;br&gt;&lt;/div&gt;" style="text;html=1;points=[];align=right;verticalAlign=top;spacingTop=-4;fontSize=14;fontFamily=Verdana" vertex="1" parent="1">
          <mxGeometry x="195" y="1625" width="320" height="67" as="geometry" />
        </mxCell>
        <mxCell id="GZVW_mrwKKOPV1Nri92c-82" value="" style="shape=sumEllipse;perimeter=ellipsePerimeter;whiteSpace=wrap;html=1;backgroundOutline=1;fillStyle=solid;fontSize=12;fillColor=#F5F5F5;gradientColor=none;" vertex="1" parent="1">
          <mxGeometry x="547.63" y="1585" width="104.87" height="100" as="geometry" />
        </mxCell>
        <mxCell id="GZVW_mrwKKOPV1Nri92c-83" value="&lt;b style=&quot;font-size: 14px;&quot;&gt;December 2015&lt;br style=&quot;font-size: 14px;&quot;&gt;Transition to Full Service&lt;br style=&quot;font-size: 14px;&quot;&gt;&lt;/b&gt;" style="text;html=1;points=[];align=right;verticalAlign=top;spacingTop=-4;fontSize=14;fontFamily=Verdana" vertex="1" parent="1">
          <mxGeometry x="315" y="1885" width="202.5" height="40" as="geometry" />
        </mxCell>
        <mxCell id="GZVW_mrwKKOPV1Nri92c-84" value="&lt;div style=&quot;&quot;&gt;&lt;span style=&quot;font-size: 12px; text-align: justify;&quot;&gt;Lorem ipsum dolor sit amet, consectetur&amp;nbsp;&lt;/span&gt;&lt;/div&gt;&lt;div style=&quot;&quot;&gt;&lt;span style=&quot;font-size: 12px; text-align: justify;&quot;&gt;adipisicing elit,&amp;nbsp;&lt;/span&gt;&lt;span style=&quot;font-size: 12px; text-align: justify; background-color: initial;&quot;&gt;sed do eiusmod tempor&lt;/span&gt;&lt;/div&gt;&lt;div style=&quot;&quot;&gt;&lt;span style=&quot;font-size: 12px; text-align: justify;&quot;&gt;&amp;nbsp;incididunt ut labore et dolore magna aliqua.&amp;nbsp;&lt;/span&gt;&lt;/div&gt;&lt;div style=&quot;&quot;&gt;&lt;span style=&quot;font-size: 12px; text-align: justify;&quot;&gt;Ut enim ad minim veniam, quis nostrud exercitation&lt;/span&gt;&lt;br&gt;&lt;/div&gt;" style="text;html=1;points=[];align=right;verticalAlign=top;spacingTop=-4;fontSize=14;fontFamily=Verdana" vertex="1" parent="1">
          <mxGeometry x="197.5" y="1925" width="320" height="67" as="geometry" />
        </mxCell>
        <mxCell id="GZVW_mrwKKOPV1Nri92c-85" value="" style="shape=sumEllipse;perimeter=ellipsePerimeter;whiteSpace=wrap;html=1;backgroundOutline=1;fillStyle=solid;fontSize=12;fillColor=#F5F5F5;gradientColor=none;" vertex="1" parent="1">
          <mxGeometry x="550.13" y="1885" width="104.87" height="100" as="geometry" />
        </mxCell>
        <mxCell id="GZVW_mrwKKOPV1Nri92c-86" value="&lt;b style=&quot;font-size: 14px;&quot;&gt;March 2011&lt;br style=&quot;font-size: 14px;&quot;&gt;An Agency is Born&lt;br style=&quot;font-size: 14px;&quot;&gt;&lt;/b&gt;" style="text;html=1;points=[];align=left;verticalAlign=top;spacingTop=-4;fontSize=14;fontFamily=Verdana" vertex="1" parent="1">
          <mxGeometry x="677.5" y="1738" width="202.5" height="40" as="geometry" />
        </mxCell>
        <mxCell id="GZVW_mrwKKOPV1Nri92c-87" value="&lt;div style=&quot;&quot;&gt;&lt;span style=&quot;font-size: 12px;&quot;&gt;Lorem ipsum dolor sit amet, consectetur&amp;nbsp;&lt;/span&gt;&lt;/div&gt;&lt;div style=&quot;&quot;&gt;&lt;span style=&quot;font-size: 12px;&quot;&gt;adipisicing elit,&amp;nbsp;&lt;/span&gt;&lt;span style=&quot;font-size: 12px; background-color: initial;&quot;&gt;sed do eiusmod tempor&lt;/span&gt;&lt;/div&gt;&lt;div style=&quot;&quot;&gt;&lt;span style=&quot;font-size: 12px;&quot;&gt;&amp;nbsp;incididunt ut labore et dolore magna aliqua.&amp;nbsp;&lt;/span&gt;&lt;/div&gt;&lt;div style=&quot;&quot;&gt;&lt;span style=&quot;font-size: 12px;&quot;&gt;Ut enim ad minim veniam, quis nostrud exercitation&lt;/span&gt;&lt;br&gt;&lt;/div&gt;" style="text;html=1;points=[];align=left;verticalAlign=top;spacingTop=-4;fontSize=14;fontFamily=Verdana" vertex="1" parent="1">
          <mxGeometry x="675" y="1778" width="320" height="67" as="geometry" />
        </mxCell>
        <mxCell id="GZVW_mrwKKOPV1Nri92c-88" value="" style="shape=sumEllipse;perimeter=ellipsePerimeter;whiteSpace=wrap;html=1;backgroundOutline=1;fillStyle=solid;fontSize=12;fillColor=#F5F5F5;gradientColor=none;" vertex="1" parent="1">
          <mxGeometry x="552.5" y="1735" width="104.87" height="100" as="geometry" />
        </mxCell>
        <mxCell id="GZVW_mrwKKOPV1Nri92c-89" value="&lt;b style=&quot;font-size: 14px;&quot;&gt;July 2020&lt;br style=&quot;font-size: 14px;&quot;&gt;Phase Two Expansion&lt;br style=&quot;font-size: 14px;&quot;&gt;&lt;/b&gt;" style="text;html=1;points=[];align=left;verticalAlign=top;spacingTop=-4;fontSize=14;fontFamily=Verdana" vertex="1" parent="1">
          <mxGeometry x="677.5" y="2035" width="202.5" height="40" as="geometry" />
        </mxCell>
        <mxCell id="GZVW_mrwKKOPV1Nri92c-90" value="&lt;div style=&quot;&quot;&gt;&lt;span style=&quot;font-size: 12px;&quot;&gt;Lorem ipsum dolor sit amet, consectetur&amp;nbsp;&lt;/span&gt;&lt;/div&gt;&lt;div style=&quot;&quot;&gt;&lt;span style=&quot;font-size: 12px;&quot;&gt;adipisicing elit,&amp;nbsp;&lt;/span&gt;&lt;span style=&quot;font-size: 12px; background-color: initial;&quot;&gt;sed do eiusmod tempor&lt;/span&gt;&lt;/div&gt;&lt;div style=&quot;&quot;&gt;&lt;span style=&quot;font-size: 12px;&quot;&gt;&amp;nbsp;incididunt ut labore et dolore magna aliqua.&amp;nbsp;&lt;/span&gt;&lt;/div&gt;&lt;div style=&quot;&quot;&gt;&lt;span style=&quot;font-size: 12px;&quot;&gt;Ut enim ad minim veniam, quis nostrud exercitation&lt;/span&gt;&lt;br&gt;&lt;/div&gt;" style="text;html=1;points=[];align=left;verticalAlign=top;spacingTop=-4;fontSize=14;fontFamily=Verdana" vertex="1" parent="1">
          <mxGeometry x="675" y="2075" width="320" height="67" as="geometry" />
        </mxCell>
        <mxCell id="GZVW_mrwKKOPV1Nri92c-91" value="" style="shape=sumEllipse;perimeter=ellipsePerimeter;whiteSpace=wrap;html=1;backgroundOutline=1;fillStyle=solid;fontSize=12;fillColor=#F5F5F5;gradientColor=none;" vertex="1" parent="1">
          <mxGeometry x="550" y="2035" width="104.87" height="100" as="geometry" />
        </mxCell>
        <mxCell id="GZVW_mrwKKOPV1Nri92c-92" value="" style="shape=sumEllipse;perimeter=ellipsePerimeter;whiteSpace=wrap;html=1;backgroundOutline=1;fillStyle=solid;fontSize=12;fillColor=#F5F5F5;gradientColor=none;" vertex="1" parent="1">
          <mxGeometry x="550.13" y="2185" width="104.87" height="100" as="geometry" />
        </mxCell>
        <mxCell id="GZVW_mrwKKOPV1Nri92c-93" value="" style="line;strokeWidth=1;direction=south;html=1;fillStyle=solid;strokeColor=#000000;fontSize=14;fillColor=#CCCCCC;gradientColor=none;" vertex="1" parent="1">
          <mxGeometry x="597.57" y="1685" width="10" height="50" as="geometry" />
        </mxCell>
        <mxCell id="GZVW_mrwKKOPV1Nri92c-96" value="" style="line;strokeWidth=1;direction=south;html=1;fillStyle=solid;strokeColor=#000000;fontSize=14;fillColor=#CCCCCC;gradientColor=none;" vertex="1" parent="1">
          <mxGeometry x="597.4300000000001" y="1835" width="10" height="50" as="geometry" />
        </mxCell>
        <mxCell id="GZVW_mrwKKOPV1Nri92c-97" value="" style="line;strokeWidth=1;direction=south;html=1;fillStyle=solid;strokeColor=#000000;fontSize=14;fillColor=#CCCCCC;gradientColor=none;" vertex="1" parent="1">
          <mxGeometry x="597.57" y="1985" width="10" height="50" as="geometry" />
        </mxCell>
        <mxCell id="GZVW_mrwKKOPV1Nri92c-98" value="" style="line;strokeWidth=1;direction=south;html=1;fillStyle=solid;strokeColor=#000000;fontSize=14;fillColor=#CCCCCC;gradientColor=none;" vertex="1" parent="1">
          <mxGeometry x="597.4300000000001" y="2135" width="10" height="50" as="geometry" />
        </mxCell>
        <mxCell id="GZVW_mrwKKOPV1Nri92c-99" value="" style="line;strokeWidth=1;html=1;rounded=0;shadow=0;labelBackgroundColor=none;fillColor=none;fontFamily=Verdana;fontSize=14;fontColor=#000000;align=center;comic=1;" vertex="1" parent="1">
          <mxGeometry x="57" y="2330" width="1060" height="10" as="geometry" />
        </mxCell>
        <mxCell id="GZVW_mrwKKOPV1Nri92c-100" value="&lt;b&gt;&lt;font style=&quot;font-size: 24px;&quot;&gt;OUR AMAZING TEAM&lt;/font&gt;&lt;/b&gt;" style="text;html=1;points=[];align=center;verticalAlign=top;spacingTop=-4;fontSize=14;fontFamily=Verdana" vertex="1" parent="1">
          <mxGeometry x="419" y="2370" width="290.5" height="30" as="geometry" />
        </mxCell>
        <mxCell id="GZVW_mrwKKOPV1Nri92c-101" value="&lt;span style=&quot;font-size: 12px; text-align: justify;&quot;&gt;Lorem ipsum dolor sit amet,&lt;/span&gt;&lt;span style=&quot;font-size: 12px; text-align: justify;&quot;&gt;Lorem&lt;/span&gt;" style="text;html=1;points=[];align=center;verticalAlign=top;spacingTop=-4;fontSize=14;fontFamily=Verdana" vertex="1" parent="1">
          <mxGeometry x="458.5" y="2410" width="230" height="20" as="geometry" />
        </mxCell>
        <mxCell id="GZVW_mrwKKOPV1Nri92c-102" value="" style="shape=sumEllipse;perimeter=ellipsePerimeter;whiteSpace=wrap;html=1;backgroundOutline=1;fillStyle=solid;fontSize=12;fillColor=#F5F5F5;gradientColor=none;" vertex="1" parent="1">
          <mxGeometry x="509.82000000000005" y="2460" width="127.37" height="120" as="geometry" />
        </mxCell>
        <mxCell id="GZVW_mrwKKOPV1Nri92c-103" value="&lt;b style=&quot;font-size: 14px;&quot;&gt;Diana Petersen&lt;/b&gt;" style="text;html=1;points=[];align=center;verticalAlign=top;spacingTop=-4;fontSize=14;fontFamily=Verdana" vertex="1" parent="1">
          <mxGeometry x="488.5" y="2590" width="170" height="20" as="geometry" />
        </mxCell>
        <mxCell id="GZVW_mrwKKOPV1Nri92c-104" value="&lt;div style=&quot;text-align: justify; font-size: 11px;&quot;&gt;&lt;span style=&quot;background-color: initial; font-size: 11px;&quot;&gt;Lead Marketer&lt;/span&gt;&lt;/div&gt;" style="text;html=1;points=[];align=center;verticalAlign=top;spacingTop=-4;fontSize=11;fontFamily=Verdana" vertex="1" parent="1">
          <mxGeometry x="521" y="2612" width="100" height="20" as="geometry" />
        </mxCell>
        <mxCell id="GZVW_mrwKKOPV1Nri92c-105" value="" style="shape=image;html=1;verticalAlign=top;verticalLabelPosition=bottom;labelBackgroundColor=#ffffff;imageAspect=0;aspect=fixed;image=https://cdn1.iconfinder.com/data/icons/social-media-circle-7/512/Circled_Twitter_svg-128.png;fillStyle=solid;strokeColor=#000000;strokeWidth=1;fontSize=11;fillColor=#CCCCCC;gradientColor=none;" vertex="1" parent="1">
          <mxGeometry x="503.25" y="2641.5" width="30" height="30" as="geometry" />
        </mxCell>
        <mxCell id="GZVW_mrwKKOPV1Nri92c-106" value="" style="shape=image;html=1;verticalAlign=top;verticalLabelPosition=bottom;labelBackgroundColor=#ffffff;imageAspect=0;aspect=fixed;image=https://cdn3.iconfinder.com/data/icons/picons-social/57/46-facebook-128.png;fillStyle=solid;strokeColor=#000000;strokeWidth=1;fontSize=11;fillColor=#CCCCCC;gradientColor=none;" vertex="1" parent="1">
          <mxGeometry x="559" y="2641" width="34" height="34" as="geometry" />
        </mxCell>
        <mxCell id="GZVW_mrwKKOPV1Nri92c-107" value="" style="shape=image;html=1;verticalAlign=top;verticalLabelPosition=bottom;labelBackgroundColor=#ffffff;imageAspect=0;aspect=fixed;image=https://cdn4.iconfinder.com/data/icons/picons-social/57/38-instagram-3-128.png;fillStyle=solid;strokeColor=#000000;strokeWidth=1;fontSize=11;fillColor=#CCCCCC;gradientColor=none;" vertex="1" parent="1">
          <mxGeometry x="614.19" y="2641.25" width="33" height="33" as="geometry" />
        </mxCell>
        <mxCell id="GZVW_mrwKKOPV1Nri92c-108" value="&lt;div style=&quot;&quot;&gt;&lt;span style=&quot;font-size: 12px;&quot;&gt;Lorem ipsum dolor sit amet, consectetur&amp;nbsp;&lt;/span&gt;&lt;span style=&quot;background-color: initial; font-size: 12px;&quot;&gt;adipisicing elit,&amp;nbsp;&lt;/span&gt;&lt;span style=&quot;background-color: initial; font-size: 12px;&quot;&gt;sed do eiusmod tempor&lt;/span&gt;&lt;span style=&quot;font-size: 12px; background-color: initial;&quot;&gt;&amp;nbsp;incididunt&amp;nbsp;&lt;/span&gt;&lt;/div&gt;&lt;div style=&quot;&quot;&gt;&lt;span style=&quot;font-size: 12px; background-color: initial;&quot;&gt;ut labore&amp;nbsp;&lt;/span&gt;&lt;span style=&quot;background-color: initial; font-size: 12px;&quot;&gt;et dolore magna aliqua.&lt;/span&gt;&lt;/div&gt;" style="text;html=1;points=[];align=center;verticalAlign=top;spacingTop=-4;fontSize=14;fontFamily=Verdana" vertex="1" parent="1">
          <mxGeometry x="324" y="2740" width="550" height="40" as="geometry" />
        </mxCell>
        <mxCell id="GZVW_mrwKKOPV1Nri92c-112" value="" style="ellipse;whiteSpace=wrap;html=1;aspect=fixed;fillStyle=solid;strokeColor=#000000;strokeWidth=1;fontSize=11;fillColor=#CCCCCC;gradientColor=none;" vertex="1" parent="1">
          <mxGeometry x="787.5" y="2636.25" width="42.5" height="42.5" as="geometry" />
        </mxCell>
        <mxCell id="GZVW_mrwKKOPV1Nri92c-113" value="" style="ellipse;whiteSpace=wrap;html=1;aspect=fixed;fillStyle=solid;strokeColor=#000000;strokeWidth=1;fontSize=11;fillColor=#CCCCCC;gradientColor=none;" vertex="1" parent="1">
          <mxGeometry x="843.25" y="2636.5" width="42.5" height="42.5" as="geometry" />
        </mxCell>
        <mxCell id="GZVW_mrwKKOPV1Nri92c-114" value="" style="ellipse;whiteSpace=wrap;html=1;aspect=fixed;fillStyle=solid;strokeColor=#000000;strokeWidth=1;fontSize=11;fillColor=#CCCCCC;gradientColor=none;" vertex="1" parent="1">
          <mxGeometry x="899.5" y="2636.5" width="42.5" height="42.5" as="geometry" />
        </mxCell>
        <mxCell id="GZVW_mrwKKOPV1Nri92c-115" value="" style="shape=sumEllipse;perimeter=ellipsePerimeter;whiteSpace=wrap;html=1;backgroundOutline=1;fillStyle=solid;fontSize=12;fillColor=#F5F5F5;gradientColor=none;" vertex="1" parent="1">
          <mxGeometry x="800.32" y="2459.75" width="127.37" height="120" as="geometry" />
        </mxCell>
        <mxCell id="GZVW_mrwKKOPV1Nri92c-116" value="&lt;b style=&quot;font-size: 14px;&quot;&gt;Larry Parker&lt;/b&gt;" style="text;html=1;points=[];align=center;verticalAlign=top;spacingTop=-4;fontSize=14;fontFamily=Verdana" vertex="1" parent="1">
          <mxGeometry x="779" y="2589.75" width="170" height="20" as="geometry" />
        </mxCell>
        <mxCell id="GZVW_mrwKKOPV1Nri92c-117" value="&lt;div style=&quot;text-align: justify; font-size: 11px;&quot;&gt;&lt;span style=&quot;background-color: initial; font-size: 11px;&quot;&gt;Lead Developer&lt;/span&gt;&lt;/div&gt;" style="text;html=1;points=[];align=center;verticalAlign=top;spacingTop=-4;fontSize=11;fontFamily=Verdana" vertex="1" parent="1">
          <mxGeometry x="811.5" y="2611.75" width="100" height="20" as="geometry" />
        </mxCell>
        <mxCell id="GZVW_mrwKKOPV1Nri92c-118" value="" style="shape=image;html=1;verticalAlign=top;verticalLabelPosition=bottom;labelBackgroundColor=#ffffff;imageAspect=0;aspect=fixed;image=https://cdn1.iconfinder.com/data/icons/social-media-circle-7/512/Circled_Twitter_svg-128.png;fillStyle=solid;strokeColor=#000000;strokeWidth=1;fontSize=11;fillColor=#CCCCCC;gradientColor=none;" vertex="1" parent="1">
          <mxGeometry x="793.75" y="2641.25" width="30" height="30" as="geometry" />
        </mxCell>
        <mxCell id="GZVW_mrwKKOPV1Nri92c-119" value="" style="shape=image;html=1;verticalAlign=top;verticalLabelPosition=bottom;labelBackgroundColor=#ffffff;imageAspect=0;aspect=fixed;image=https://cdn3.iconfinder.com/data/icons/picons-social/57/46-facebook-128.png;fillStyle=solid;strokeColor=#000000;strokeWidth=1;fontSize=11;fillColor=#CCCCCC;gradientColor=none;" vertex="1" parent="1">
          <mxGeometry x="849.5" y="2640.75" width="34" height="34" as="geometry" />
        </mxCell>
        <mxCell id="GZVW_mrwKKOPV1Nri92c-120" value="" style="shape=image;html=1;verticalAlign=top;verticalLabelPosition=bottom;labelBackgroundColor=#ffffff;imageAspect=0;aspect=fixed;image=https://cdn4.iconfinder.com/data/icons/picons-social/57/38-instagram-3-128.png;fillStyle=solid;strokeColor=#000000;strokeWidth=1;fontSize=11;fillColor=#CCCCCC;gradientColor=none;" vertex="1" parent="1">
          <mxGeometry x="904.69" y="2641" width="33" height="33" as="geometry" />
        </mxCell>
        <mxCell id="GZVW_mrwKKOPV1Nri92c-121" value="" style="ellipse;whiteSpace=wrap;html=1;aspect=fixed;fillStyle=solid;strokeColor=#000000;strokeWidth=1;fontSize=11;fillColor=#CCCCCC;gradientColor=none;" vertex="1" parent="1">
          <mxGeometry x="207.5" y="2636.5" width="42.5" height="42.5" as="geometry" />
        </mxCell>
        <mxCell id="GZVW_mrwKKOPV1Nri92c-122" value="" style="ellipse;whiteSpace=wrap;html=1;aspect=fixed;fillStyle=solid;strokeColor=#000000;strokeWidth=1;fontSize=11;fillColor=#CCCCCC;gradientColor=none;" vertex="1" parent="1">
          <mxGeometry x="263.25" y="2636.75" width="42.5" height="42.5" as="geometry" />
        </mxCell>
        <mxCell id="GZVW_mrwKKOPV1Nri92c-123" value="" style="ellipse;whiteSpace=wrap;html=1;aspect=fixed;fillStyle=solid;strokeColor=#000000;strokeWidth=1;fontSize=11;fillColor=#CCCCCC;gradientColor=none;" vertex="1" parent="1">
          <mxGeometry x="319.5" y="2636.75" width="42.5" height="42.5" as="geometry" />
        </mxCell>
        <mxCell id="GZVW_mrwKKOPV1Nri92c-124" value="" style="shape=sumEllipse;perimeter=ellipsePerimeter;whiteSpace=wrap;html=1;backgroundOutline=1;fillStyle=solid;fontSize=12;fillColor=#F5F5F5;gradientColor=none;" vertex="1" parent="1">
          <mxGeometry x="220.32000000000005" y="2460" width="127.37" height="120" as="geometry" />
        </mxCell>
        <mxCell id="GZVW_mrwKKOPV1Nri92c-125" value="&lt;b&gt;Parveen Anand&lt;/b&gt;" style="text;html=1;points=[];align=center;verticalAlign=top;spacingTop=-4;fontSize=14;fontFamily=Verdana" vertex="1" parent="1">
          <mxGeometry x="199" y="2590" width="170" height="20" as="geometry" />
        </mxCell>
        <mxCell id="GZVW_mrwKKOPV1Nri92c-126" value="&lt;div style=&quot;text-align: justify; font-size: 11px;&quot;&gt;&lt;span style=&quot;background-color: initial; font-size: 11px;&quot;&gt;Lead Designer&lt;/span&gt;&lt;/div&gt;" style="text;html=1;points=[];align=center;verticalAlign=top;spacingTop=-4;fontSize=11;fontFamily=Verdana" vertex="1" parent="1">
          <mxGeometry x="231.5" y="2612" width="100" height="20" as="geometry" />
        </mxCell>
        <mxCell id="GZVW_mrwKKOPV1Nri92c-127" value="" style="shape=image;html=1;verticalAlign=top;verticalLabelPosition=bottom;labelBackgroundColor=#ffffff;imageAspect=0;aspect=fixed;image=https://cdn1.iconfinder.com/data/icons/social-media-circle-7/512/Circled_Twitter_svg-128.png;fillStyle=solid;strokeColor=#000000;strokeWidth=1;fontSize=11;fillColor=#CCCCCC;gradientColor=none;" vertex="1" parent="1">
          <mxGeometry x="213.75" y="2641.5" width="30" height="30" as="geometry" />
        </mxCell>
        <mxCell id="GZVW_mrwKKOPV1Nri92c-128" value="" style="shape=image;html=1;verticalAlign=top;verticalLabelPosition=bottom;labelBackgroundColor=#ffffff;imageAspect=0;aspect=fixed;image=https://cdn3.iconfinder.com/data/icons/picons-social/57/46-facebook-128.png;fillStyle=solid;strokeColor=#000000;strokeWidth=1;fontSize=11;fillColor=#CCCCCC;gradientColor=none;" vertex="1" parent="1">
          <mxGeometry x="269.5" y="2641" width="34" height="34" as="geometry" />
        </mxCell>
        <mxCell id="GZVW_mrwKKOPV1Nri92c-129" value="" style="shape=image;html=1;verticalAlign=top;verticalLabelPosition=bottom;labelBackgroundColor=#ffffff;imageAspect=0;aspect=fixed;image=https://cdn4.iconfinder.com/data/icons/picons-social/57/38-instagram-3-128.png;fillStyle=solid;strokeColor=#000000;strokeWidth=1;fontSize=11;fillColor=#CCCCCC;gradientColor=none;" vertex="1" parent="1">
          <mxGeometry x="324.69000000000005" y="2641.25" width="33" height="33" as="geometry" />
        </mxCell>
        <mxCell id="GZVW_mrwKKOPV1Nri92c-130" value="" style="line;strokeWidth=1;html=1;rounded=0;shadow=0;labelBackgroundColor=none;fillColor=none;fontFamily=Verdana;fontSize=14;fontColor=#000000;align=center;comic=1;" vertex="1" parent="1">
          <mxGeometry x="57" y="2803" width="1060" height="10" as="geometry" />
        </mxCell>
        <mxCell id="GZVW_mrwKKOPV1Nri92c-131" value="" style="line;strokeWidth=1;html=1;rounded=0;shadow=0;labelBackgroundColor=none;fillColor=none;fontFamily=Verdana;fontSize=14;fontColor=#000000;align=center;comic=1;" vertex="1" parent="1">
          <mxGeometry x="57" y="2950" width="1060" height="10" as="geometry" />
        </mxCell>
        <mxCell id="GZVW_mrwKKOPV1Nri92c-133" value="" style="line;strokeWidth=1;html=1;rounded=0;shadow=0;labelBackgroundColor=none;fillColor=none;fontFamily=Verdana;fontSize=14;fontColor=#000000;align=center;comic=1;" vertex="1" parent="1">
          <mxGeometry x="58" y="560" width="1060" height="10" as="geometry" />
        </mxCell>
        <mxCell id="GZVW_mrwKKOPV1Nri92c-134" value="" style="strokeWidth=1;shadow=0;dashed=0;align=center;html=1;shape=mxgraph.mockup.buttons.button;strokeColor=#000000;fontColor=#ffffff;mainText=;buttonStyle=round;fontSize=17;fontStyle=1;fillColor=#CCCCCC;whiteSpace=wrap;fillStyle=solid;" vertex="1" parent="1">
          <mxGeometry x="133.75" y="2845" width="195" height="70" as="geometry" />
        </mxCell>
        <mxCell id="GZVW_mrwKKOPV1Nri92c-135" value="" style="shape=image;verticalLabelPosition=bottom;labelBackgroundColor=default;verticalAlign=top;aspect=fixed;imageAspect=0;image=https://w7.pngwing.com/pngs/854/524/png-transparent-microsoft-azure-logo-typescript-business-microsoft-angle-company-text.png;direction=east;clipPath=inset(32.67% 17.67% 33.33% 15.33%);opacity=25;" vertex="1" parent="1">
          <mxGeometry x="145.25" y="2858.18" width="172" height="43.64179104477612" as="geometry" />
        </mxCell>
        <mxCell id="GZVW_mrwKKOPV1Nri92c-136" value="" style="strokeWidth=1;shadow=0;dashed=0;align=center;html=1;shape=mxgraph.mockup.buttons.button;strokeColor=#000000;fontColor=#ffffff;mainText=;buttonStyle=round;fontSize=17;fontStyle=1;fillColor=#CCCCCC;whiteSpace=wrap;fillStyle=solid;" vertex="1" parent="1">
          <mxGeometry x="380.69" y="2845" width="195" height="70" as="geometry" />
        </mxCell>
        <mxCell id="GZVW_mrwKKOPV1Nri92c-137" value="" style="strokeWidth=1;shadow=0;dashed=0;align=center;html=1;shape=mxgraph.mockup.buttons.button;strokeColor=#000000;fontColor=#ffffff;mainText=;buttonStyle=round;fontSize=17;fontStyle=1;fillColor=#CCCCCC;whiteSpace=wrap;fillStyle=solid;" vertex="1" parent="1">
          <mxGeometry x="632" y="2845" width="195" height="70" as="geometry" />
        </mxCell>
        <mxCell id="GZVW_mrwKKOPV1Nri92c-138" value="" style="strokeWidth=1;shadow=0;dashed=0;align=center;html=1;shape=mxgraph.mockup.buttons.button;strokeColor=#000000;fontColor=#ffffff;mainText=;buttonStyle=round;fontSize=17;fontStyle=1;fillColor=#CCCCCC;whiteSpace=wrap;fillStyle=solid;" vertex="1" parent="1">
          <mxGeometry x="872.5" y="2845" width="195" height="70" as="geometry" />
        </mxCell>
        <mxCell id="GZVW_mrwKKOPV1Nri92c-139" value="" style="shape=image;verticalLabelPosition=bottom;labelBackgroundColor=default;verticalAlign=top;aspect=fixed;imageAspect=0;image=https://www.citypng.com/public/uploads/small/115969963204orvcyfzbxzuxt1gmhq93ijmwqk4q6k4eujl3wgngfl77ewluk0hxatrmnppos0aio0kb1hjfi3w8ebmsfk3xfi1rwvqstzvuzpr.png;clipPath=inset(29.41% 47% 31.62% 6.67%);opacity=25;" vertex="1" parent="1">
          <mxGeometry x="425.74" y="2858.18" width="104.91" height="40" as="geometry" />
        </mxCell>
        <mxCell id="GZVW_mrwKKOPV1Nri92c-140" value="" style="shape=image;verticalLabelPosition=bottom;labelBackgroundColor=default;verticalAlign=top;aspect=fixed;imageAspect=0;image=https://uploads-ssl.webflow.com/6138f264e056284b85d8187b/613bd2e5ff02dc69be9d7c6a_20.png;opacity=25;" vertex="1" parent="1">
          <mxGeometry x="657.56" y="2856" width="144.44" height="40" as="geometry" />
        </mxCell>
        <mxCell id="GZVW_mrwKKOPV1Nri92c-141" value="" style="shape=image;verticalLabelPosition=bottom;labelBackgroundColor=default;verticalAlign=top;aspect=fixed;imageAspect=0;image=https://banner2.cleanpng.com/20180330/uxe/kisspng-ibm-computer-software-encapsulated-postscript-logo-ibm-5abe0df528b441.3089357815224048531667.jpg;opacity=25;" vertex="1" parent="1">
          <mxGeometry x="917" y="2856" width="102.36" height="50" as="geometry" />
        </mxCell>
        <mxCell id="GZVW_mrwKKOPV1Nri92c-142" value="" style="line;strokeWidth=1;html=1;rounded=0;shadow=0;labelBackgroundColor=none;fillColor=none;fontFamily=Verdana;fontSize=14;fontColor=#000000;align=center;comic=1;" vertex="1" parent="1">
          <mxGeometry x="52" y="3410" width="1060" height="10" as="geometry" />
        </mxCell>
        <mxCell id="GZVW_mrwKKOPV1Nri92c-143" value="" style="line;strokeWidth=1;html=1;rounded=0;shadow=0;labelBackgroundColor=none;fillColor=none;fontFamily=Verdana;fontSize=14;fontColor=#000000;align=center;comic=1;" vertex="1" parent="1">
          <mxGeometry x="52" y="3527" width="1060" height="10" as="geometry" />
        </mxCell>
        <mxCell id="GZVW_mrwKKOPV1Nri92c-144" value="Privacy Policy" style="strokeWidth=1;shadow=0;dashed=0;align=center;html=1;shape=mxgraph.mockup.buttons.button;strokeColor=#666666;fontColor=#000000;mainText=;buttonStyle=round;fontSize=10;fontStyle=1;fillColor=none;whiteSpace=wrap;fillStyle=solid;" vertex="1" parent="1">
          <mxGeometry x="826.75" y="3440" width="95.75" height="30" as="geometry" />
        </mxCell>
        <mxCell id="GZVW_mrwKKOPV1Nri92c-146" value="Terms of Use" style="strokeWidth=1;shadow=0;dashed=0;align=center;html=1;shape=mxgraph.mockup.buttons.button;strokeColor=#666666;fontColor=#000000;mainText=;buttonStyle=round;fontSize=10;fontStyle=1;fillColor=none;whiteSpace=wrap;fillStyle=solid;" vertex="1" parent="1">
          <mxGeometry x="941.75" y="3440" width="95.75" height="30" as="geometry" />
        </mxCell>
        <mxCell id="GZVW_mrwKKOPV1Nri92c-147" value="" style="ellipse;whiteSpace=wrap;html=1;aspect=fixed;fillStyle=solid;strokeColor=#000000;strokeWidth=1;fontSize=11;fillColor=#CCCCCC;gradientColor=none;" vertex="1" parent="1">
          <mxGeometry x="546.3199999999999" y="3432.25" width="42.5" height="42.5" as="geometry" />
        </mxCell>
        <mxCell id="GZVW_mrwKKOPV1Nri92c-148" value="" style="ellipse;whiteSpace=wrap;html=1;aspect=fixed;fillStyle=solid;strokeColor=#000000;strokeWidth=1;fontSize=11;fillColor=#CCCCCC;gradientColor=none;" vertex="1" parent="1">
          <mxGeometry x="602.07" y="3432.5" width="42.5" height="42.5" as="geometry" />
        </mxCell>
        <mxCell id="GZVW_mrwKKOPV1Nri92c-149" value="" style="ellipse;whiteSpace=wrap;html=1;aspect=fixed;fillStyle=solid;strokeColor=#000000;strokeWidth=1;fontSize=11;fillColor=#CCCCCC;gradientColor=none;" vertex="1" parent="1">
          <mxGeometry x="658.32" y="3432.5" width="42.5" height="42.5" as="geometry" />
        </mxCell>
        <mxCell id="GZVW_mrwKKOPV1Nri92c-150" value="" style="shape=image;html=1;verticalAlign=top;verticalLabelPosition=bottom;labelBackgroundColor=#ffffff;imageAspect=0;aspect=fixed;image=https://cdn1.iconfinder.com/data/icons/social-media-circle-7/512/Circled_Twitter_svg-128.png;fillStyle=solid;strokeColor=#000000;strokeWidth=1;fontSize=11;fillColor=#CCCCCC;gradientColor=none;" vertex="1" parent="1">
          <mxGeometry x="552.57" y="3437.25" width="30" height="30" as="geometry" />
        </mxCell>
        <mxCell id="GZVW_mrwKKOPV1Nri92c-151" value="" style="shape=image;html=1;verticalAlign=top;verticalLabelPosition=bottom;labelBackgroundColor=#ffffff;imageAspect=0;aspect=fixed;image=https://cdn3.iconfinder.com/data/icons/picons-social/57/46-facebook-128.png;fillStyle=solid;strokeColor=#000000;strokeWidth=1;fontSize=11;fillColor=#CCCCCC;gradientColor=none;" vertex="1" parent="1">
          <mxGeometry x="608.32" y="3436.75" width="34" height="34" as="geometry" />
        </mxCell>
        <mxCell id="GZVW_mrwKKOPV1Nri92c-152" value="" style="shape=image;html=1;verticalAlign=top;verticalLabelPosition=bottom;labelBackgroundColor=#ffffff;imageAspect=0;aspect=fixed;image=https://cdn4.iconfinder.com/data/icons/picons-social/57/38-instagram-3-128.png;fillStyle=solid;strokeColor=#000000;strokeWidth=1;fontSize=11;fillColor=#CCCCCC;gradientColor=none;" vertex="1" parent="1">
          <mxGeometry x="663.5100000000001" y="3437" width="33" height="33" as="geometry" />
        </mxCell>
        <mxCell id="GZVW_mrwKKOPV1Nri92c-153" value="Copyright Â© Your Website 2022" style="text;html=1;resizable=0;autosize=1;align=center;verticalAlign=middle;points=[];fillColor=none;strokeColor=none;rounded=0;fillStyle=solid;strokeWidth=1;fontSize=10;fontColor=#000000;opacity=25;" vertex="1" parent="1">
          <mxGeometry x="199.5" y="3440" width="160" height="30" as="geometry" />
        </mxCell>
        <mxCell id="GZVW_mrwKKOPV1Nri92c-154" value="&lt;span style=&quot;font-size: 24px;&quot;&gt;&lt;b&gt;CONTACT US&lt;/b&gt;&lt;/span&gt;" style="text;html=1;points=[];align=center;verticalAlign=top;spacingTop=-4;fontSize=14;fontFamily=Verdana" vertex="1" parent="1">
          <mxGeometry x="418.75" y="2990" width="290.5" height="30" as="geometry" />
        </mxCell>
        <mxCell id="GZVW_mrwKKOPV1Nri92c-155" value="&lt;span style=&quot;font-size: 12px; text-align: justify;&quot;&gt;Lorem ipsum dolor sit amet,&lt;/span&gt;" style="text;html=1;points=[];align=center;verticalAlign=top;spacingTop=-4;fontSize=14;fontFamily=Verdana" vertex="1" parent="1">
          <mxGeometry x="458.25" y="3030" width="230" height="20" as="geometry" />
        </mxCell>
        <mxCell id="GZVW_mrwKKOPV1Nri92c-156" value="SEND MESSAGE" style="strokeWidth=1;shadow=0;dashed=0;align=center;html=1;shape=mxgraph.mockup.buttons.button;strokeColor=none;fontColor=#ffffff;mainText=;buttonStyle=round;fontSize=14;fontStyle=1;fillColor=#FFFF00;whiteSpace=wrap;fillStyle=solid;" vertex="1" parent="1">
          <mxGeometry x="488.25" y="3300" width="170" height="50" as="geometry" />
        </mxCell>
        <mxCell id="GZVW_mrwKKOPV1Nri92c-162" value="Your Name *" style="strokeWidth=1;shadow=0;dashed=0;align=center;html=1;shape=mxgraph.mockup.text.textBox;fontColor=#666666;align=left;fontSize=17;spacingLeft=4;spacingTop=-3;strokeColor=#666666;mainText=;fillStyle=solid;fillColor=none;gradientColor=none;opacity=25;" vertex="1" parent="1">
          <mxGeometry x="172" y="3100" width="397.5" height="45" as="geometry" />
        </mxCell>
        <mxCell id="GZVW_mrwKKOPV1Nri92c-163" value="Your Email *" style="strokeWidth=1;shadow=0;dashed=0;align=center;html=1;shape=mxgraph.mockup.text.textBox;fontColor=#666666;align=left;fontSize=17;spacingLeft=4;spacingTop=-3;strokeColor=#666666;mainText=;fillStyle=solid;fillColor=none;gradientColor=none;opacity=25;" vertex="1" parent="1">
          <mxGeometry x="172" y="3160" width="397.5" height="45" as="geometry" />
        </mxCell>
        <mxCell id="GZVW_mrwKKOPV1Nri92c-164" value="Your Phone *" style="strokeWidth=1;shadow=0;dashed=0;align=center;html=1;shape=mxgraph.mockup.text.textBox;fontColor=#666666;align=left;fontSize=17;spacingLeft=4;spacingTop=-3;strokeColor=#666666;mainText=;fillStyle=solid;fillColor=none;gradientColor=none;opacity=25;" vertex="1" parent="1">
          <mxGeometry x="173.25" y="3220" width="397.5" height="50" as="geometry" />
        </mxCell>
        <mxCell id="GZVW_mrwKKOPV1Nri92c-165" value="Your Message *" style="strokeWidth=1;shadow=0;dashed=0;align=center;html=1;shape=mxgraph.mockup.text.textBox;fontColor=#666666;align=left;fontSize=17;spacingLeft=4;spacingTop=-3;strokeColor=#666666;mainText=;fillStyle=solid;fillColor=#FFFFFF;gradientColor=none;opacity=25;" vertex="1" parent="1">
          <mxGeometry x="599.5" y="3100" width="397.5" height="170" as="geometry" />
        </mxCell>
        <mxCell id="GZVW_mrwKKOPV1Nri92c-169" value="Logo: reduce a 20px al desplazar pÃ¡gina hacia abajo" style="shape=note;whiteSpace=wrap;html=1;backgroundOutline=1;fontColor=#000000;darkOpacity=0.05;fillColor=#FFF9B2;strokeColor=none;fillStyle=solid;direction=west;gradientDirection=north;gradientColor=#FFF2A1;shadow=1;size=18;pointerEvents=1;strokeWidth=1;fontSize=12;opacity=25;" vertex="1" parent="1">
          <mxGeometry x="272" y="170" width="161" height="40" as="geometry" />
        </mxCell>
        <mxCell id="GZVW_mrwKKOPV1Nri92c-170" value="Logo + menÃº superior: se inmoviliza al desplazar pÃ¡gina hacia abajo" style="shape=note;whiteSpace=wrap;html=1;backgroundOutline=1;fontColor=#000000;darkOpacity=0.05;fillColor=#FFF9B2;strokeColor=none;fillStyle=solid;direction=east;gradientDirection=north;gradientColor=#FFF2A1;shadow=1;size=20;pointerEvents=1;strokeWidth=1;fontSize=12;opacity=25;" vertex="1" parent="1">
          <mxGeometry x="91" y="250" width="161" height="40" as="geometry" />
        </mxCell>
        <mxCell id="GZVW_mrwKKOPV1Nri92c-171" value="Img1: de fondo" style="shape=note;whiteSpace=wrap;html=1;backgroundOutline=1;fontColor=#000000;darkOpacity=0.05;fillColor=#FFF9B2;strokeColor=none;fillStyle=solid;direction=west;gradientDirection=north;gradientColor=#FFF2A1;shadow=1;size=18;pointerEvents=1;strokeWidth=1;fontSize=12;opacity=25;" vertex="1" parent="1">
          <mxGeometry x="105" y="345" width="161" height="40" as="geometry" />
        </mxCell>
        <mxCell id="GZVW_mrwKKOPV1Nri92c-172" value="Botones del menÃº: fondo de Img1" style="shape=note;whiteSpace=wrap;html=1;backgroundOutline=1;fontColor=#000000;darkOpacity=0.05;fillColor=#FFF9B2;strokeColor=none;fillStyle=solid;direction=west;gradientDirection=north;gradientColor=#FFF2A1;shadow=1;size=18;pointerEvents=1;strokeWidth=1;fontSize=12;opacity=25;" vertex="1" parent="1">
          <mxGeometry x="542" y="170" width="132" height="40" as="geometry" />
        </mxCell>
        <mxCell id="GZVW_mrwKKOPV1Nri92c-173" value="BotÃ³n hacia &quot;Services&quot;" style="shape=note;whiteSpace=wrap;html=1;backgroundOutline=1;fontColor=#000000;darkOpacity=0.05;fillColor=#FFF9B2;strokeColor=none;fillStyle=solid;direction=west;gradientDirection=north;gradientColor=#FFF2A1;shadow=1;size=18;pointerEvents=1;strokeWidth=1;fontSize=12;opacity=25;" vertex="1" parent="1">
          <mxGeometry x="694.19" y="430" width="161" height="40" as="geometry" />
        </mxCell>
        <mxCell id="GZVW_mrwKKOPV1Nri92c-174" value="Fondo blanco" style="shape=note;whiteSpace=wrap;html=1;backgroundOutline=1;fontColor=#000000;darkOpacity=0.05;fillColor=#FFF9B2;strokeColor=none;fillStyle=solid;direction=west;gradientDirection=north;gradientColor=#FFF2A1;shadow=1;size=18;pointerEvents=1;strokeWidth=1;fontSize=12;opacity=25;" vertex="1" parent="1">
          <mxGeometry x="58" y="590" width="161" height="40" as="geometry" />
        </mxCell>
        <mxCell id="GZVW_mrwKKOPV1Nri92c-175" value="Img2" style="shape=note;whiteSpace=wrap;html=1;backgroundOutline=1;fontColor=#000000;darkOpacity=0.05;fillColor=#FFF9B2;strokeColor=none;fillStyle=solid;direction=west;gradientDirection=north;gradientColor=#FFF2A1;shadow=1;size=18;pointerEvents=1;strokeWidth=1;fontSize=12;opacity=25;" vertex="1" parent="1">
          <mxGeometry x="344.5" y="685" width="52.5" height="40" as="geometry" />
        </mxCell>
        <mxCell id="GZVW_mrwKKOPV1Nri92c-176" value="Img3" style="shape=note;whiteSpace=wrap;html=1;backgroundOutline=1;fontColor=#000000;darkOpacity=0.05;fillColor=#FFF9B2;strokeColor=none;fillStyle=solid;direction=west;gradientDirection=north;gradientColor=#FFF2A1;shadow=1;size=18;pointerEvents=1;strokeWidth=1;fontSize=12;opacity=25;" vertex="1" parent="1">
          <mxGeometry x="638.5" y="685" width="52.5" height="40" as="geometry" />
        </mxCell>
        <mxCell id="GZVW_mrwKKOPV1Nri92c-177" value="Img4" style="shape=note;whiteSpace=wrap;html=1;backgroundOutline=1;fontColor=#000000;darkOpacity=0.05;fillColor=#FFF9B2;strokeColor=none;fillStyle=solid;direction=west;gradientDirection=north;gradientColor=#FFF2A1;shadow=1;size=18;pointerEvents=1;strokeWidth=1;fontSize=12;opacity=25;" vertex="1" parent="1">
          <mxGeometry x="938.5" y="675" width="52.5" height="40" as="geometry" />
        </mxCell>
        <mxCell id="GZVW_mrwKKOPV1Nri92c-178" value="BotÃ³n con Img5&lt;br&gt;link pÃ¡g2" style="shape=note;whiteSpace=wrap;html=1;backgroundOutline=1;fontColor=#000000;darkOpacity=0.05;fillColor=#FFF9B2;strokeColor=none;fillStyle=solid;direction=west;gradientDirection=north;gradientColor=#FFF2A1;shadow=1;size=18;pointerEvents=1;strokeWidth=1;fontSize=12;opacity=25;" vertex="1" parent="1">
          <mxGeometry x="269.5" y="977.5" width="52.5" height="40" as="geometry" />
        </mxCell>
        <mxCell id="GZVW_mrwKKOPV1Nri92c-179" value="BotÃ³n con Img6&lt;br&gt;link pÃ¡g3" style="shape=note;whiteSpace=wrap;html=1;backgroundOutline=1;fontColor=#000000;darkOpacity=0.05;fillColor=#FFF9B2;strokeColor=none;fillStyle=solid;direction=west;gradientDirection=north;gradientColor=#FFF2A1;shadow=1;size=18;pointerEvents=1;strokeWidth=1;fontSize=12;opacity=25;" vertex="1" parent="1">
          <mxGeometry x="565.8199999999999" y="977.5" width="52.5" height="40" as="geometry" />
        </mxCell>
        <mxCell id="GZVW_mrwKKOPV1Nri92c-180" value="BotÃ³n con Img7&lt;br&gt;link pÃ¡g4" style="shape=note;whiteSpace=wrap;html=1;backgroundOutline=1;fontColor=#000000;darkOpacity=0.05;fillColor=#FFF9B2;strokeColor=none;fillStyle=solid;direction=west;gradientDirection=north;gradientColor=#FFF2A1;shadow=1;size=18;pointerEvents=1;strokeWidth=1;fontSize=12;opacity=25;" vertex="1" parent="1">
          <mxGeometry x="859.5" y="977.5" width="52.5" height="40" as="geometry" />
        </mxCell>
        <mxCell id="GZVW_mrwKKOPV1Nri92c-181" value="BotÃ³n con Img8&lt;br&gt;link pÃ¡g5" style="shape=note;whiteSpace=wrap;html=1;backgroundOutline=1;fontColor=#000000;darkOpacity=0.05;fillColor=#FFF9B2;strokeColor=none;fillStyle=solid;direction=west;gradientDirection=north;gradientColor=#FFF2A1;shadow=1;size=18;pointerEvents=1;strokeWidth=1;fontSize=12;opacity=25;" vertex="1" parent="1">
          <mxGeometry x="281.25" y="1227.5" width="52.5" height="40" as="geometry" />
        </mxCell>
        <mxCell id="GZVW_mrwKKOPV1Nri92c-182" value="BotÃ³n con Img9&lt;br&gt;link pÃ¡g6" style="shape=note;whiteSpace=wrap;html=1;backgroundOutline=1;fontColor=#000000;darkOpacity=0.05;fillColor=#FFF9B2;strokeColor=none;fillStyle=solid;direction=west;gradientDirection=north;gradientColor=#FFF2A1;shadow=1;size=18;pointerEvents=1;strokeWidth=1;fontSize=12;opacity=25;" vertex="1" parent="1">
          <mxGeometry x="572" y="1227.5" width="52.5" height="40" as="geometry" />
        </mxCell>
        <mxCell id="GZVW_mrwKKOPV1Nri92c-183" value="BotÃ³n con Img10&lt;br&gt;link pÃ¡g7" style="shape=note;whiteSpace=wrap;html=1;backgroundOutline=1;fontColor=#000000;darkOpacity=0.05;fillColor=#FFF9B2;strokeColor=none;fillStyle=solid;direction=west;gradientDirection=north;gradientColor=#FFF2A1;shadow=1;size=18;pointerEvents=1;strokeWidth=1;fontSize=12;opacity=25;" vertex="1" parent="1">
          <mxGeometry x="856.25" y="1227.5" width="56.75" height="40" as="geometry" />
        </mxCell>
        <mxCell id="GZVW_mrwKKOPV1Nri92c-184" value="Fondo gris transparente 25%" style="shape=note;whiteSpace=wrap;html=1;backgroundOutline=1;fontColor=#000000;darkOpacity=0.05;fillColor=#FFF9B2;strokeColor=none;fillStyle=solid;direction=west;gradientDirection=north;gradientColor=#FFF2A1;shadow=1;size=18;pointerEvents=1;strokeWidth=1;fontSize=12;opacity=25;" vertex="1" parent="1">
          <mxGeometry x="55" y="870" width="161" height="40" as="geometry" />
        </mxCell>
        <mxCell id="GZVW_mrwKKOPV1Nri92c-185" value="Img11" style="shape=note;whiteSpace=wrap;html=1;backgroundOutline=1;fontColor=#000000;darkOpacity=0.05;fillColor=#FFF9B2;strokeColor=none;fillStyle=solid;direction=west;gradientDirection=north;gradientColor=#FFF2A1;shadow=1;size=18;pointerEvents=1;strokeWidth=1;fontSize=12;opacity=25;" vertex="1" parent="1">
          <mxGeometry x="663.19" y="1605" width="52.5" height="40" as="geometry" />
        </mxCell>
        <mxCell id="GZVW_mrwKKOPV1Nri92c-186" value="Img12" style="shape=note;whiteSpace=wrap;html=1;backgroundOutline=1;fontColor=#000000;darkOpacity=0.05;fillColor=#FFF9B2;strokeColor=none;fillStyle=solid;direction=west;gradientDirection=north;gradientColor=#FFF2A1;shadow=1;size=18;pointerEvents=1;strokeWidth=1;fontSize=12;opacity=25;" vertex="1" parent="1">
          <mxGeometry x="489.00000000000006" y="1759" width="52.5" height="40" as="geometry" />
        </mxCell>
        <mxCell id="GZVW_mrwKKOPV1Nri92c-187" value="Img13" style="shape=note;whiteSpace=wrap;html=1;backgroundOutline=1;fontColor=#000000;darkOpacity=0.05;fillColor=#FFF9B2;strokeColor=none;fillStyle=solid;direction=west;gradientDirection=north;gradientColor=#FFF2A1;shadow=1;size=18;pointerEvents=1;strokeWidth=1;fontSize=12;opacity=25;" vertex="1" parent="1">
          <mxGeometry x="663.19" y="1905" width="52.5" height="40" as="geometry" />
        </mxCell>
        <mxCell id="GZVW_mrwKKOPV1Nri92c-188" value="Img14" style="shape=note;whiteSpace=wrap;html=1;backgroundOutline=1;fontColor=#000000;darkOpacity=0.05;fillColor=#FFF9B2;strokeColor=none;fillStyle=solid;direction=west;gradientDirection=north;gradientColor=#FFF2A1;shadow=1;size=18;pointerEvents=1;strokeWidth=1;fontSize=12;opacity=25;" vertex="1" parent="1">
          <mxGeometry x="489" y="2065" width="52.5" height="40" as="geometry" />
        </mxCell>
        <mxCell id="GZVW_mrwKKOPV1Nri92c-189" value="Img15" style="shape=note;whiteSpace=wrap;html=1;backgroundOutline=1;fontColor=#000000;darkOpacity=0.05;fillColor=#FFF9B2;strokeColor=none;fillStyle=solid;direction=west;gradientDirection=north;gradientColor=#FFF2A1;shadow=1;size=18;pointerEvents=1;strokeWidth=1;fontSize=12;opacity=25;" vertex="1" parent="1">
          <mxGeometry x="663.19" y="2213" width="52.5" height="40" as="geometry" />
        </mxCell>
        <mxCell id="GZVW_mrwKKOPV1Nri92c-190" value="Img16" style="shape=note;whiteSpace=wrap;html=1;backgroundOutline=1;fontColor=#000000;darkOpacity=0.05;fillColor=#FFF9B2;strokeColor=none;fillStyle=solid;direction=west;gradientDirection=north;gradientColor=#FFF2A1;shadow=1;size=18;pointerEvents=1;strokeWidth=1;fontSize=12;opacity=25;" vertex="1" parent="1">
          <mxGeometry x="357.69000000000005" y="2500" width="52.5" height="40" as="geometry" />
        </mxCell>
        <mxCell id="GZVW_mrwKKOPV1Nri92c-191" value="Img17" style="shape=note;whiteSpace=wrap;html=1;backgroundOutline=1;fontColor=#000000;darkOpacity=0.05;fillColor=#FFF9B2;strokeColor=none;fillStyle=solid;direction=west;gradientDirection=north;gradientColor=#FFF2A1;shadow=1;size=18;pointerEvents=1;strokeWidth=1;fontSize=12;opacity=25;" vertex="1" parent="1">
          <mxGeometry x="651.5" y="2499.75" width="52.5" height="40" as="geometry" />
        </mxCell>
        <mxCell id="GZVW_mrwKKOPV1Nri92c-192" value="Img18" style="shape=note;whiteSpace=wrap;html=1;backgroundOutline=1;fontColor=#000000;darkOpacity=0.05;fillColor=#FFF9B2;strokeColor=none;fillStyle=solid;direction=west;gradientDirection=north;gradientColor=#FFF2A1;shadow=1;size=18;pointerEvents=1;strokeWidth=1;fontSize=12;opacity=25;" vertex="1" parent="1">
          <mxGeometry x="943.86" y="2499.75" width="52.5" height="40" as="geometry" />
        </mxCell>
        <mxCell id="GZVW_mrwKKOPV1Nri92c-193" value="Fondo blanco" style="shape=note;whiteSpace=wrap;html=1;backgroundOutline=1;fontColor=#000000;darkOpacity=0.05;fillColor=#FFF9B2;strokeColor=none;fillStyle=solid;direction=west;gradientDirection=north;gradientColor=#FFF2A1;shadow=1;size=18;pointerEvents=1;strokeWidth=1;fontSize=12;opacity=25;" vertex="1" parent="1">
          <mxGeometry x="72" y="1490" width="161" height="40" as="geometry" />
        </mxCell>
        <mxCell id="GZVW_mrwKKOPV1Nri92c-195" value="Fondo gris transparente 25%" style="shape=note;whiteSpace=wrap;html=1;backgroundOutline=1;fontColor=#000000;darkOpacity=0.05;fillColor=#FFF9B2;strokeColor=none;fillStyle=solid;direction=west;gradientDirection=north;gradientColor=#FFF2A1;shadow=1;size=18;pointerEvents=1;strokeWidth=1;fontSize=12;opacity=25;" vertex="1" parent="1">
          <mxGeometry x="93.5" y="2350" width="161" height="40" as="geometry" />
        </mxCell>
        <mxCell id="GZVW_mrwKKOPV1Nri92c-196" value="Fondo blanco" style="shape=note;whiteSpace=wrap;html=1;backgroundOutline=1;fontColor=#000000;darkOpacity=0.05;fillColor=#FFF9B2;strokeColor=none;fillStyle=solid;direction=west;gradientDirection=north;gradientColor=#FFF2A1;shadow=1;size=18;pointerEvents=1;strokeWidth=1;fontSize=12;opacity=25;" vertex="1" parent="1">
          <mxGeometry x="57" y="2816" width="161" height="20" as="geometry" />
        </mxCell>
        <mxCell id="GZVW_mrwKKOPV1Nri92c-198" value="link t1" style="shape=note;whiteSpace=wrap;html=1;backgroundOutline=1;fontColor=#000000;darkOpacity=0.05;fillColor=#FFF9B2;strokeColor=none;fillStyle=solid;direction=west;gradientDirection=north;gradientColor=#FFF2A1;shadow=1;size=18;pointerEvents=1;strokeWidth=1;fontSize=12;opacity=25;" vertex="1" parent="1">
          <mxGeometry x="191.25000000000006" y="2690" width="52.5" height="40" as="geometry" />
        </mxCell>
        <mxCell id="GZVW_mrwKKOPV1Nri92c-199" value="link t2" style="shape=note;whiteSpace=wrap;html=1;backgroundOutline=1;fontColor=#000000;darkOpacity=0.05;fillColor=#FFF9B2;strokeColor=none;fillStyle=solid;direction=west;gradientDirection=north;gradientColor=#FFF2A1;shadow=1;size=18;pointerEvents=1;strokeWidth=1;fontSize=12;opacity=25;" vertex="1" parent="1">
          <mxGeometry x="474" y="2690" width="52.5" height="40" as="geometry" />
        </mxCell>
        <mxCell id="GZVW_mrwKKOPV1Nri92c-200" value="link t3" style="shape=note;whiteSpace=wrap;html=1;backgroundOutline=1;fontColor=#000000;darkOpacity=0.05;fillColor=#FFF9B2;strokeColor=none;fillStyle=solid;direction=west;gradientDirection=north;gradientColor=#FFF2A1;shadow=1;size=18;pointerEvents=1;strokeWidth=1;fontSize=12;opacity=25;" vertex="1" parent="1">
          <mxGeometry x="766.5" y="2690" width="52.5" height="40" as="geometry" />
        </mxCell>
        <mxCell id="GZVW_mrwKKOPV1Nri92c-201" value="link f1" style="shape=note;whiteSpace=wrap;html=1;backgroundOutline=1;fontColor=#000000;darkOpacity=0.05;fillColor=#FFF9B2;strokeColor=none;fillStyle=solid;direction=west;gradientDirection=north;gradientColor=#FFF2A1;shadow=1;size=18;pointerEvents=1;strokeWidth=1;fontSize=12;opacity=25;" vertex="1" parent="1">
          <mxGeometry x="251.50000000000006" y="2690" width="52.5" height="40" as="geometry" />
        </mxCell>
        <mxCell id="GZVW_mrwKKOPV1Nri92c-202" value="link f2" style="shape=note;whiteSpace=wrap;html=1;backgroundOutline=1;fontColor=#000000;darkOpacity=0.05;fillColor=#FFF9B2;strokeColor=none;fillStyle=solid;direction=west;gradientDirection=north;gradientColor=#FFF2A1;shadow=1;size=18;pointerEvents=1;strokeWidth=1;fontSize=12;opacity=25;" vertex="1" parent="1">
          <mxGeometry x="540" y="2690" width="52.5" height="40" as="geometry" />
        </mxCell>
        <mxCell id="GZVW_mrwKKOPV1Nri92c-203" value="link f3" style="shape=note;whiteSpace=wrap;html=1;backgroundOutline=1;fontColor=#000000;darkOpacity=0.05;fillColor=#FFF9B2;strokeColor=none;fillStyle=solid;direction=west;gradientDirection=north;gradientColor=#FFF2A1;shadow=1;size=18;pointerEvents=1;strokeWidth=1;fontSize=12;opacity=25;" vertex="1" parent="1">
          <mxGeometry x="840.25" y="2690" width="52.5" height="40" as="geometry" />
        </mxCell>
        <mxCell id="GZVW_mrwKKOPV1Nri92c-204" value="link i1" style="shape=note;whiteSpace=wrap;html=1;backgroundOutline=1;fontColor=#000000;darkOpacity=0.05;fillColor=#FFF9B2;strokeColor=none;fillStyle=solid;direction=west;gradientDirection=north;gradientColor=#FFF2A1;shadow=1;size=18;pointerEvents=1;strokeWidth=1;fontSize=12;opacity=25;" vertex="1" parent="1">
          <mxGeometry x="319.50000000000006" y="2690" width="52.5" height="40" as="geometry" />
        </mxCell>
        <mxCell id="GZVW_mrwKKOPV1Nri92c-205" value="link i2" style="shape=note;whiteSpace=wrap;html=1;backgroundOutline=1;fontColor=#000000;darkOpacity=0.05;fillColor=#FFF9B2;strokeColor=none;fillStyle=solid;direction=west;gradientDirection=north;gradientColor=#FFF2A1;shadow=1;size=18;pointerEvents=1;strokeWidth=1;fontSize=12;opacity=25;" vertex="1" parent="1">
          <mxGeometry x="606.76" y="2690" width="52.5" height="40" as="geometry" />
        </mxCell>
        <mxCell id="GZVW_mrwKKOPV1Nri92c-206" value="link i3" style="shape=note;whiteSpace=wrap;html=1;backgroundOutline=1;fontColor=#000000;darkOpacity=0.05;fillColor=#FFF9B2;strokeColor=none;fillStyle=solid;direction=west;gradientDirection=north;gradientColor=#FFF2A1;shadow=1;size=18;pointerEvents=1;strokeWidth=1;fontSize=12;opacity=25;" vertex="1" parent="1">
          <mxGeometry x="906.5" y="2690" width="52.5" height="40" as="geometry" />
        </mxCell>
        <mxCell id="GZVW_mrwKKOPV1Nri92c-207" value="link microsoft" style="shape=note;whiteSpace=wrap;html=1;backgroundOutline=1;fontColor=#000000;darkOpacity=0.05;fillColor=#FFF9B2;strokeColor=none;fillStyle=solid;direction=west;gradientDirection=north;gradientColor=#FFF2A1;shadow=1;size=18;pointerEvents=1;strokeWidth=1;fontSize=12;opacity=25;" vertex="1" parent="1">
          <mxGeometry x="179.38" y="2920" width="103.75" height="20" as="geometry" />
        </mxCell>
        <mxCell id="GZVW_mrwKKOPV1Nri92c-208" value="link google" style="shape=note;whiteSpace=wrap;html=1;backgroundOutline=1;fontColor=#000000;darkOpacity=0.05;fillColor=#FFF9B2;strokeColor=none;fillStyle=solid;direction=west;gradientDirection=north;gradientColor=#FFF2A1;shadow=1;size=18;pointerEvents=1;strokeWidth=1;fontSize=12;opacity=25;" vertex="1" parent="1">
          <mxGeometry x="433.19" y="2920" width="103.75" height="20" as="geometry" />
        </mxCell>
        <mxCell id="GZVW_mrwKKOPV1Nri92c-209" value="link facebook" style="shape=note;whiteSpace=wrap;html=1;backgroundOutline=1;fontColor=#000000;darkOpacity=0.05;fillColor=#FFF9B2;strokeColor=none;fillStyle=solid;direction=west;gradientDirection=north;gradientColor=#FFF2A1;shadow=1;size=18;pointerEvents=1;strokeWidth=1;fontSize=12;opacity=25;" vertex="1" parent="1">
          <mxGeometry x="681.5" y="2920" width="103.75" height="20" as="geometry" />
        </mxCell>
        <mxCell id="GZVW_mrwKKOPV1Nri92c-210" value="link ibm" style="shape=note;whiteSpace=wrap;html=1;backgroundOutline=1;fontColor=#000000;darkOpacity=0.05;fillColor=#FFF9B2;strokeColor=none;fillStyle=solid;direction=west;gradientDirection=north;gradientColor=#FFF2A1;shadow=1;size=18;pointerEvents=1;strokeWidth=1;fontSize=12;opacity=25;" vertex="1" parent="1">
          <mxGeometry x="922.5" y="2920" width="103.75" height="20" as="geometry" />
        </mxCell>
        <mxCell id="GZVW_mrwKKOPV1Nri92c-211" value="Img19: de fondo" style="shape=note;whiteSpace=wrap;html=1;backgroundOutline=1;fontColor=#000000;darkOpacity=0.05;fillColor=#FFF9B2;strokeColor=none;fillStyle=solid;direction=west;gradientDirection=north;gradientColor=#FFF2A1;shadow=1;size=18;pointerEvents=1;strokeWidth=1;fontSize=12;opacity=25;" vertex="1" parent="1">
          <mxGeometry x="93.5" y="2990" width="161" height="40" as="geometry" />
        </mxCell>
        <mxCell id="GZVW_mrwKKOPV1Nri92c-212" value="Formulario: campos en fondo blanco" style="shape=note;whiteSpace=wrap;html=1;backgroundOutline=1;fontColor=#000000;darkOpacity=0.05;fillColor=#FFF9B2;strokeColor=none;fillStyle=solid;direction=west;gradientDirection=north;gradientColor=#FFF2A1;shadow=1;size=18;pointerEvents=1;strokeWidth=1;fontSize=12;opacity=25;rotation=-90;" vertex="1" parent="1">
          <mxGeometry x="48" y="3162.5" width="161" height="40" as="geometry" />
        </mxCell>
        <mxCell id="GZVW_mrwKKOPV1Nri92c-213" value="BotÃ³n de envÃ­o de datos" style="shape=note;whiteSpace=wrap;html=1;backgroundOutline=1;fontColor=#000000;darkOpacity=0.05;fillColor=#FFF9B2;strokeColor=none;fillStyle=solid;direction=west;gradientDirection=north;gradientColor=#FFF2A1;shadow=1;size=18;pointerEvents=1;strokeWidth=1;fontSize=12;opacity=25;" vertex="1" parent="1">
          <mxGeometry x="670.19" y="3300" width="161" height="40" as="geometry" />
        </mxCell>
        <mxCell id="GZVW_mrwKKOPV1Nri92c-214" value="Links" style="shape=note;whiteSpace=wrap;html=1;backgroundOutline=1;fontColor=#000000;darkOpacity=0.05;fillColor=#FFF9B2;strokeColor=none;fillStyle=solid;direction=west;gradientDirection=north;gradientColor=#FFF2A1;shadow=1;size=18;pointerEvents=1;strokeWidth=1;fontSize=12;opacity=25;" vertex="1" parent="1">
          <mxGeometry x="1047.5" y="3445" width="54.5" height="25" as="geometry" />
        </mxCell>
        <mxCell id="GZVW_mrwKKOPV1Nri92c-215" value="link t4" style="shape=note;whiteSpace=wrap;html=1;backgroundOutline=1;fontColor=#000000;darkOpacity=0.05;fillColor=#FFF9B2;strokeColor=none;fillStyle=solid;direction=west;gradientDirection=north;gradientColor=#FFF2A1;shadow=1;size=18;pointerEvents=1;strokeWidth=1;fontSize=12;opacity=25;" vertex="1" parent="1">
          <mxGeometry x="530.94" y="3480" width="52.5" height="40" as="geometry" />
        </mxCell>
        <mxCell id="GZVW_mrwKKOPV1Nri92c-216" value="link f4" style="shape=note;whiteSpace=wrap;html=1;backgroundOutline=1;fontColor=#000000;darkOpacity=0.05;fillColor=#FFF9B2;strokeColor=none;fillStyle=solid;direction=west;gradientDirection=north;gradientColor=#FFF2A1;shadow=1;size=18;pointerEvents=1;strokeWidth=1;fontSize=12;opacity=25;" vertex="1" parent="1">
          <mxGeometry x="596.94" y="3480" width="52.5" height="40" as="geometry" />
        </mxCell>
        <mxCell id="GZVW_mrwKKOPV1Nri92c-217" value="link i4" style="shape=note;whiteSpace=wrap;html=1;backgroundOutline=1;fontColor=#000000;darkOpacity=0.05;fillColor=#FFF9B2;strokeColor=none;fillStyle=solid;direction=west;gradientDirection=north;gradientColor=#FFF2A1;shadow=1;size=18;pointerEvents=1;strokeWidth=1;fontSize=12;opacity=25;" vertex="1" parent="1">
          <mxGeometry x="663.7" y="3480" width="52.5" height="40" as="geometry" />
        </mxCell>
        <mxCell id="GZVW_mrwKKOPV1Nri92c-218" value="" style="line;strokeWidth=1;html=1;rounded=0;shadow=0;labelBackgroundColor=none;fillColor=none;fontFamily=Verdana;fontSize=14;fontColor=#000000;align=center;comic=1;direction=south;" vertex="1" parent="1">
          <mxGeometry x="48" y="160" width="10" height="3370" as="geometry" />
        </mxCell>
        <mxCell id="GZVW_mrwKKOPV1Nri92c-219" value="" style="line;strokeWidth=1;html=1;rounded=0;shadow=0;labelBackgroundColor=none;fillColor=none;fontFamily=Verdana;fontSize=14;fontColor=#000000;align=center;comic=1;direction=south;" vertex="1" parent="1">
          <mxGeometry x="1111" y="160" width="10" height="3370" as="geometry" />
        </mxCell>
        <mxCell id="GZVW_mrwKKOPV1Nri92c-220" value="/* PRESENTADO POR: MARCOS NINUZZO CHÃVEZ VICETTI&lt;br style=&quot;font-size: 20px;&quot;&gt;UCI: DESARROLLO WEB PROFESIONAL&lt;br style=&quot;font-size: 20px;&quot;&gt;ESQUEMA DE WEBSITE:&amp;nbsp;https://startbootstrap.com/previews/agency */" style="shape=note;whiteSpace=wrap;html=1;backgroundOutline=1;fontColor=#000000;darkOpacity=0.05;fillColor=#E6FFCC;strokeColor=default;fillStyle=solid;direction=west;gradientDirection=north;gradientColor=#FFF2A1;shadow=1;size=20;pointerEvents=1;strokeWidth=1;fontSize=20;opacity=50;perimeterSpacing=1;" vertex="1" parent="1">
          <mxGeometry x="183" y="30" width="850" height="95" as="geometry" />
        </mxCell>
      </root>
    </mxGraphModel>
  </diagram>
</mxfile>
